<mxfile host="65bd71144e">
    <diagram id="_P102u2dAnOZsZiT0HHx" name="PÃ¡gina-1">
        <mxGraphModel dx="662" dy="461" grid="1" gridSize="10" guides="1" tooltips="1" connect="1" arrows="1" fold="1" page="1" pageScale="1" pageWidth="827" pageHeight="1169" math="0" shadow="0">
            <root>
                <mxCell id="0"/>
                <mxCell id="1" parent="0"/>
                <mxCell id="2" value="" style="shape=image;verticalLabelPosition=bottom;labelBackgroundColor=default;verticalAlign=top;aspect=fixed;imageAspect=0;image=data:image/png,iVBORw0KGgoAAAANSUhEUgAAAgAAAAJTCAYAAAB+Yq6jAAAgAElEQVR4AeydBbhVVfrGXwU7x57/jBNOODPqjF2IdIOooIC0gKAIigGiGKh0d3dduhukLyDdISohdalLp75/vr3Phuv1ws1Td7/nec5zztl75W/ts793fSs2oJcIiIAIJE/gBlTDA3mIfNmJctkn4OO8va4amLf91QvztLpmW+7m1xzK3fzaU7mbXvdz7mbXMXfT65i72bVncze79lieltfsydPqmnX5ulwzKdegK1tl24wauYji/yGeAvCH5LNWCBEQAREQAREQgVARuALAn7L1u/LTHP2umJizfZaFBdpdH/dCp1v4aq/bWKrP7XxtwB0sN/hOVoi5i5WG3s3Kw+5m5eH38PXA275XGnY3K8bcxfJD7mLZgXeyTN87WKr37SzR/Xcs3P6mk3naXbvu+W5XzM45OEsPVEMhAFeHqoLKRwREQAREQAREwCVwc/4TKP3UQLTL1fjaIwVa3cgSPX7nGPgLRt2MfOBtxt0Mf2reXtyEYsG+l+l/B4u2v5l5ml7P51tfNfuZ7/EO2uIJNYwIiIAIiIAIiEBwCGQB8WCeAVl65mx99Y8vdLqVZQfcyYoxbm/ejHNqDHxaw3qCwERF+UF38tXet7NguxvjcrTP8m32b1EOxC3Bqb5SFQEREAEREAGfEXhkFSo82e6KcQVb3chX+9zuuO4dgx8io385sWDlMK9D+cF3sXinW5mj6TU7n5yGRpoz4LOLVNUVAREQARHIMAJZ8hEvZWuedWOxDrecMQPr9L4jwOhfShA4omTo3c7cgZxNrz2ZczBagvhbhhFRQiIgAiIgAiKQyQn8+5FWGFO47U0sN+guZ8LepYxuJB53hMrwu50JhNkbX73z0UV4I5O3l6onAiIgAiIgAukicEPOkWiZp+n1Z8oPvjPqDH9iMeINDxTvciuzfZ117VXEY+mio8giIAIiIAIikOkITMZfnmiJaS91vTXiXf2JDX1yv22OwGv972Su5tccfmQkamW6tlOFREAEREAERCAtBB4gCj732TWny0ehuz854++dd7wBI+5h0fa3/PJsV4wGcF1aWCmOCIiACIiACGQKAtlno47txOcs54vgCX6eIU/vpwkB21woe8cr5gD4v0zRiKqECIiACIiACKSGwB298F7BNjeGZP1+eg13Rsa3IQFbzvh0oyu/A7RvQGquGYUVAREQARGIcgK5l6JWgdY3OlvwZqRxjZa0zBNgWxQ/1fqKWAB3RXlzqvgiIAIiIAIikDyBB4hcuZtdey5ajHWwymmeANvC+LmumJw8NYUQAREQAREQgegm8MfsX16zt8KQu3zb+08oKOxBRMU73frLw/3wRXQ3q0ovAiIgAiIgApch8FR3jCnT7w5nqV9CQ+jn75WH380cTa49DeLhy6DTKREQAREQARGITgKPLEGFIm1vPmuubz8b/MR1t/kA5QbeyWebZV0WnS2rUouACIiACIjAZQhkb3zVdtvTP7EB1G/3gUJFO978y/NxKHUZhDolAiIgAiIgAtFF4N4xKFWs4y1Rv71vMMWKzYvI3vqqRQCyRFfrqrQiIAIiIAIikDSBLE90wKRKPtjoJz0CwYYCCre5iViPR5PGqKMiIAIiIAIiEEUE8hD/zdfq+kMa+7/7ssMfJgBsg6A8/bL0iKLmVVFFQAREQAREIGkCzx1Cedv+1gxcenrIqY37ymCw0tBfzzmoOPQOlhkMVhx626/K8toQsNwQCx/aMibOz0RSzo5XrgBwZdI0dVQEREAEREAEooRArs5Zepfuc3tIBYAZ/7mbJrNsDGjGvewQ97Pa8H9wyPJGfGvk484xEwOlBoP9Y9uy/ay6F8KVGWIi4faQCwITAPnbXfsTgP9ESfOqmCIgAiIgAiKQNIEcTa7eWt42/glh79qMfvd5DVlxGNhpTl12mfcx2836gJWGZWWzmRVYedjNbDq9Gocu6cT3xubgV5Or8OMJL7PCULBPbBMOWNSSlYeHXgSYl+SFjrcwD/Fi0jR1VAREQAREQASihECOxlefCKXxt7xeGABu27+ZlUaBuw9/z1az3uCCH0fw66kVOHNLT7aaWYtztgzl4G9b8pvv+nPCyhj2W9iU41f34agVXRizrAWnrB/AVwaFdljABEDJHr9jYaJ8lDSviikCIiACIiACSRPI0fhahnoCoAmAH+I2OAJgw67lfK4POHPTUHac/TGnbOrCoctaccLKwSw2ACwyAJy0aigHLm7BmVt6sc6YXMzVF9x5cCtfdeYFhM57YQKglE0EJKokTVNHRUAEREAERCBKCORodG3I1/97AqDyKHDNT4uYrx/4zaZh7Di7viMABi9pyalrhzkC4JPJeTlxZQz7L2rG2VsG8cNxhfjCQPMgfMeSzkTC0E0MdARA79uZXwIgSq5uFVMEREAEROCSBHI0vvpoxRCO/3tDADsObGGV0eDG3cuZvx84d8sodp7zKb/5vhcbTi7HBT+O5OIfpnLyhu6OB6D/oubsu7AxF3w/nrE/jGGfRZ87KwZCOXxhAsBWTBQiyl4SqE6IgAiIgAiIQDQQyNHi6lXlBt0Z0kmAFWJu4Duj87Di0KtYe1QOlo/JyrdGPsGqw/7Jt0Y+zAox1/DNkY+y/rgSzuqEGiMe4xvDH3BWDXwwthA/HFuE5WJ+u4ww2GLABEDR9jeffZQoEA1tqzKKgAiIgAiIwCUJZOuRpX2p3qFdBmiG2kSA+3mT81lx6K3O0j53D4C7WDHmVkcI2HI/75ztG1Ah5nrnnXgPgWAbf0vf5krka3/dDwD+cUmgOiECIiACIiAC0UDgOaLYS11uDek+AKEw1kHJY9jdfL5zFnsegF4iIAIiIAIiEN0E7ifuz9X8mh2hXgkQFAMdxLkM5v4v2eM25hqYtVl0t7hKLwIiIAIiIAIBAo91x+BQbwYUjQIgX7MbCOCPunBEQAREQAREILMQeLpg6xs1DHAZD0K5gXcyW5crRmSWBlc9REAEREAERMAhkK1lltiyA++UCEhCBLw+4h4WaHvDyb8TOXS5iIAIiIAIiECmIvAkkT1vi+vjKw8P3cY60TAMYGP/r/S6jTl7ZonJVA2uyoiACIiACIiAR+Dp/uhcsudtId8ZMJKFgAmi576+ai+I+zxO+hQBERABERCBzEbgimebZYkt0/cODQUEhgLytbjh9P+2oWhma2jVRwREQAREQAR+TYD4V/ZGVx+vEHOXr0WALYt8odMtzDManX4NSL9EQAREQAREIPMSeCp746uPVBjiTxFg4/4vdbuVf2qH9pm3iVUzERABERABEUiKQFcUztH02tPlB/tLBFQefg9f7Horn2mHCUlh0TEREAEREAERyPwExiFHtsZZ4l7rfycz/eqAYXez0rC7WajNTXxqGNpm/sZVDUVABERABETg8gR+n61J1lUle97+i7nGI3nGflrLZvWy4Y58ra7fV2w16lweh86KgAiIgAiIgH8IXPdod7TN3/JGVoq5O/NMDhx2N22TH9vjP1vjLFvv3oQ8/mlS1VQEREAEREAEUkggz1kUzNE664oS3X/neAKi2SNgZbftffO1uv5Ytl5XdgGQNYUYFEwEREAEREAEfEng9meH4KscX1/L0n3vcHrQUSMEht3tbHJk8xmcsf6GWTc8Qjzuy1ZUpUVABERABEQgjQR+91AfdM3d/Np95kK38ffKw+6JyDkCJlBsdv9rA+5kkbY387EWVyxCcxROY70VTQREQAREQARE4F/EQ45HoNE1x4t3vpUVA3MEwu0VcIx+YNJimX63M3/L60893+KqRdnoGP7r1XIiIAIiIAIiIAIZRODhmaj0eEeMyN/q+uMvdbmVztMFhwfc7sFeQWC9fJvUN/weR4TYA3yKtLuZz7e8evnjY9EMwL8yqJpKRgREQAREQAREIAkCV1xL3PfvZSiVq9NV83K1uXp7kQ63nCjV53aWG3SXs9zOGS4Yfo9jsBP21JNbxueFdT4D8c3jYJsVlR1wJ1/qeivzt7tud852WTfn7p+1NYiHAdyWRBl1SAREQAREQAREIMgEslwzFIVzb8cHz/RFt9xtrlmTp8n1LNz2JhZrfwtf7v47lup3u+MtsLX43lwCW55nvXkz9hVj7mK5wXeyTP87+Erv22hDDda7L9DqRuZudm1cjs5Zxz+3AF89/xMqAvh7kOuj5EVABERABERABNJA4FoQNzuP1x2EvM8NQe28/a5sn6dX1lG5e1wxM1f3LAtz98yy+LGPr4zP2fXK5Tm7Zfk2Z/csc/P0umJSvj5Z+uYecuXn/x6IUtiKR0DcAeAGAFnSUA5FEQEREAEREAERiEACgyKwTCqSCIiACIiACIhAkAkM1+Y8QSas5EVABERABEQgAglIAERgo6hIIiACIiACIhBsAhIAwSas9EVABERABEQgAglIAERgo6hIIiACIiACIhBsAhIAwSas9EVABERABEQgAglIAERgo6hIIiACIiACIhBsAhIAwSas9EVABERABEQgAglIAERgo6hIIiACIiACIhBsAhIAwSas9EVABERABEQgAglIAERgo6hIIiACIiACIhBsAhIAwSas9EVABERABEQgAglIAERgo6hIIiACIiACIhBsAhIAwSas9EVABERABEQgAglIAERgo6hIIiACIiACIhBsAhIAwSas9EVABERABEQgAglIAERgo6hIIiACIiACIhBsAhIAwSas9EVABERABEQgAglIAERgo6hIIiACIiACIhBsAhIAwSas9EVABERABEQgAglIAERgo6hIIiACIiACIhBsAhIAwSas9EVABERABEQgAglIAERgo6hIIiACIiACIhBsAhIAwSas9EVABERABEQgAglIAERgo6hIIiACIiACIhBsAhIAwSas9EVABERABEQgAglIAERgo6hIIiACIiACIhBsAhIAwSas9EVABERABEQgAglIAERgo6hIIiACIiACIhBsAhIAwSas9EVABERABEQgAglIAERgo6hIIiACIiACIhBsAiYAsgQ7E6UvAiIgAiIgAiIQfgJXAWgK4BEAvQBcDaA1gIfDXzSVQAREQAREQAREIJgE3gNAAL8EPo8EMzOlLQIiIAIiIAIiEBkErNe/L2D8TQjUiIxiqRQiIAIiIAIiIALBJlA9IABWA7gx2JkpfREQAREQAREQgcggcB2AdQDKRkZxVAoREAEREAER8DmBV8Abc4GNngabPgM2Ccb7afCrR7B3WjDSTk+aVudcYPMXwMd9fhmo+iIgAiIgAn4jkBusURp7WQPnWB1ng/j+OYhpp63cNfAzX8D3Pz8C5vFbu6u+IiACIiACPidQGOcWmSGsCfItn73fBlkYJzZofwKf/wlUfREQARHwIYEHX8K+PWYI/Wb8TfBUwFEWBJv4sN1VZREQAREQAT8TeAJ8swLifdn7NwFQAj8R4L/9fA2o7iIgAiIgAj4kUAgHZ72Bs77r/Zu3w4Y9imDXSgC2W6FeIiACIiACIuAbAjcVwxbf9v6r4CSfARv7prVVUREQAREQAREwAs+Bb5XFQV8KAJvzUAJ7jgF8XleDCIiACIiACPiKQH5wtt8m/nn1fdOZ/b9/q68aXJUVAREQAREQAYD/KY7du/06+78ijtjs/xa6EkRABERABETAVwSeAt+qgMO+dP/b7P+XsYP3gg/6qtFVWREQAREQAREogB2LquGML2f/2zBAIRz6FsAtuhJEQAREQAREwE8EriuKH3zb+6+CU3wSbOqnBlddRUAEREAERAD/BmuW8+nmPzbn4SX8dBbAE7oUREAEREAERMBPBK54Hpzkx33/3c1/fmEB/LDfTw2uuoqACIiACIgAfg/+uzi2HzYBUD3w9pbGJf60pXJVwvCMAMu32iXyrQHSK5d9v1S4xHWx31Znm/2fF/xal4IIiIAIiIAI+IwAK72Kg47xb/sy2bEK+QYuvs1QegbYPsd0JF9PIBbsmBfevidlaL3zJjASpmfH7bd92jn79NLwfttn/YfIfu/+1rhb+AZ3k29eRU7uT375HDmwCVk1UZlMGFg69rb0TSRYXBMAJbCdD4LP+qzRVV0REAEREAE/EzjGRXe3ef/w2q4fnXWMY8Ns5NcFXMPYvR7Z7o2LhrLzu2S7suSGea4hbVaCbPc6WQtk53fIru+Rte+8aMA9IWBj7G2rkh2qk83Luum9/2eyVwOyfXXXo9C2Ftm4KNntQ7J2wDg3K0X2+Ij84AHyq+zk3E5k5QQCw4x6g2fI7evJuv8le9Qj6/2DbFPVzaNdNbJrHbL29eQXL5Ety5Gta5DvZnHzblfDFR+5cGoegBv8fB2o7iIgAiIgAj4j8DNPDOr5RRyntCMndiH7ViEH1ycndyLHtyJn9iB7f0oO+JRcPJ4c15L84Vuy4X3kj4vJ7m+SQz8h5w0l5w8nh3zk9r49429G+oPzRjvue7JvHXLpCPKrYuTsnuT4ruSqqeQnV5E/rCNH1ScndiVnDSYbFSeXjiNHtSBntCUb/Jec3eHXAsB6882KkAd2k1/kI7esINu+QM4eQXYsQ84fSk7sRA59jxzXl1wzkWz3Djm3Pzm+HRk7kOz47ml78l8HnzW7qisCIiACIuB3AjzHgbWeOcEXQf70Pdm7DBnzHrnzB7L/1+TMIeTsXuTUxmTrCm7vfu1s8ssHybm9yDIg69xGdq9DTulOzmz7ayPtCYCNS2m77HHOBLJ/Q7LuX8he9cjYYWTP8uSmlW5vvM4DZGwfcvzn5GIL+yUZv4/85MrfCgBz5dtQxI8byHIgNy0l2xQhpw8m5/chp/Ykh7ciN88iR3YlRzQmy4L86A6yd31y4Vhy2OCtBHCv368D1V8EREAERMBfBK47d5bzPnqOLHl+ct+OLWSvMuSQ98ltG8iuH5J9GpKNXyWnN3fd/eaeXz+X/PJ/5IwOZCmQM9qRMV+Q4zuS01uTFZzH6roG3RMA362wjXbIuePJIU3IuV3Ibu+S82PI7qXJTSvId0G+9wC5aKDrDZg3nOz2Edm/EdnwEVcAVEyQtjeWv3Wja9g9ATDDREtXcmw7smcDsot5AHqSQxvbhD9y/QKyQ0Vy/ihy5vRtmv3vr2tetRUBERABEQD450VzdnFKKzI2hhzRlOxXjRzyCTmuFTm9GzmjF9mhNNnvY3LFNHJqF3L7CvKr/5Gzu7gCwIztzP7k5Nbkxjlkx5Jk78ruRDsTAO+dn3y3eyM5tiW5bCTZpIRr5Md3IOf1JecPJr9bTk5qTs4bRk7pRTYsQH47mpzUnZzUmPz8cXcOQPPiZJ8qFycDmtjY+z3Zviq5ZaXrAfhmGNnmBde7MK0X2b8yOaEfOaK5653YMIcc04mc25c8e5qxuhJEQAREQAREwGcEWHXu6Hi2qki2relOnPvw32S9R93ee5tqZItK7oRAG9Nv+TrZqAT5dQmy9tXkp8+7kwHrPkK2q0l+9BDZpALZJCfZu9JFAfDh+Zn2a2aRjUqSDYu6+XxeiGxdjXz/LrLhi67x/vwRss2bbt42vv9FATfd+k+Tta4nG2RzZ/n3CYgLK5OFs4mFn+YlG9qkxJfdOQDW02/8Ctm2BvneP8n6ucl6T7l5f5aTbF+TrPqvuBOrl7Gszxpd1RUBERABEfA7gRw4sWzFlF9Y77mLPWpzq3tvM672TvzbO2a9ezPCdt6W1Nlv+/zgj+Q7WdzjdqwuyHXzydcSuO/tuJdOaZBbN1yMb+lZul569ukZ+w/uJd/J6qZtx7zjlpYt6Vs2gRz0iTsR0Y55eVgaCdO133lxagWALH6/DlR/ERABERABfxG4/wXExdW13v7VriH1DGp6Pz3BkDCdD5+8aIATHrfvZoxNhHgGOvH5hL+TSts7bwKgQcHk62LhKuGYbf6jR//665pXbUVABERABB4H37ZH/3rGM9ifyRl3r5ef3nKkJB0TAC/jJ1v+909dCSIgAiIgAiLgKwKFcWxadZwNmQBIr2HPyPjV8TMLY8c6AFf4qtFVWREQAREQAb8T4M3FsMWXxt96/1Vwks+Ajf1+Faj+IiACIiACPiOQE3y7LA44k+YysmcdDWnZtsQlsecowOw+a3ZVVwREQAREwO8ECoJz38QvvvQAmEgpjPgtfr8GVH8REAEREAHfEeCDxbF3t/WEo6HHnpFlNPd/BRyxHQmb+a7ZVWEREAEREAF/E3gCfMtm/5sxzEjjGg1pubP/d/A28AF/XwWqvQiIgAiIgO8IFMKe+dVwxnfG3wSKLUUsjH1LAdzou4ZXhUVABERABHxN4Ppi+MG3vX+b/f+UZv/7+g+gyouACIiALwk8BFYvi0O+FAA256EEdp8E8JwvG1+VFgEREAER8C+BHOBMP479u+7/X1gQO3f7t/VVcxEQAREQAV8SuBH8T3Hs3OfX2f8VcYQFwKa+bHxVWgREQAREwL8EngarlUe879z/5vEw0fMytvNf4GP+vQJUcxEQAREQAV8SyIctayviKKviFKviZMS8bUVCcMt0itVwmgVwaAGAm33Z+Kq0CIiACIiAfwkUAN/OBn74FPh+pLyfBmv9A5NXPQnWDWaZngbrFQNz+Lf1VXMREAEREAERiDwCQyKvSCqRCIiACIiACIhAsAkMB5A12JkofREQAREQAREQgcgiIAEQWe2h0oiACIiACIhASAhIAIQEszIRAREQAREQgcgiIAEQWe2h0oiACIiACIhASAiYAMgSkpyUiQiIgAiIgAiIQFgJ2KS/twDcB6BPYBJgbQD/DGuplLkIiIAIiIAIiEDQCTQBcAjAYQDbAJwOeo7KQAREQAREQAREIOwEbgFwAgAD7/phL5EKIAIiIAIiIAIiEBIC9QLGfyOAO0KSozIRAREQAREQAREIO4E/BIYBPgl7SVQAERABERABERCB0BH4pg++BHBj6HJUTiIgAiIgAiIgAmElwA0oMWsQzh1cjDEArgtrYZS5CIiACIiACIhA8AlwKfLPHgT+tBhcOwXcNhNTg5+rchABERABERABEQgbAa5D9rlDcGpbrCsAHBEwFTy3Br20KVDYmkUZi4AIiIAIiEDwCHA1Hpo/FAc8479jEWjvnd+Cy8eD3IzOwctdKYuACIiACIiACIScAFfjvml9cWzrArfn7xl/79MRARMcEdA85IVThiIgAiIgAiIgAkEhcM+8wVh7KeOfUAQsGA5yPeoEpRRKVAREQAREQAREIGQEbp/UE3u2zk+65+8Zf+9z9xIwdgR4dg20P0DImkgZiYAIiIAIiEDGErgrdihm/5hC4++JAJsYGDscp7kaZTO2OEpNBERABERABEQg2ARuWjgci7bMSVnP3zP+3mfAE3D8+BJUCXZBlb4IiIAIiIAIiEDGELh19ThM2jwrbcbfEwH2OS8GZ8Z8hgIZUyylIgIiIAIiIAIiECwCV22egrEbZqTf+JsAsNUBc4fgMJeiSLAKrHRFQAREQAREQATSR+CaLVMxaf10cOdid41/wt58Wr9vX+h4Ak5zBnKlr3iKLQIiIAIiIAIikOEEji1F3zVTMqbnn1As2KRA2zxo9kAc5QA8muEFV4IiIAIiIAIiIAJpI7BjNsavnuK67BMa74z6fkEEDMJpzsSTaSulYomACIiACIiACGQYAa5D45UTM77nn1g8mAj4YR44bwjiAPwpwyqghERABERABERABFJHgJvQYdk4cNeSjBvzT2z4E/42EWA7Ci4Yip2cgPtSV1qFFgEREAEREAERSDcBbsAHS8cGv+efUADYdxMBtr/AghhsBXBDuiuiBERABERABERABFJGgBtQa96w4I35Jzb6iX+bCPh+Lrh4JBYBuCllpVYoERABERABERCBNBPgBlRbOBKnzQgnNsyh/G1LDTd+Ay4egW8BZE1zhRRRBERABERABETg8gS4Ai/OGoxT4Tb+ntCwjYI2fQMuHIpRALJcvvQ6KwIiIAIiIAIikGoCXIvSsSNwOFQT/jwjn9yniYCNM8HVYzFBnoBUN6siiIAIiIAIiMBlCTw+ezAO2658yRnkcJw3EbBmKrhmHLpethY6KQIiIAIiIAIikDICXIP8cwbhoBnZcBj3lObpiYCt36AngCtSVjuFEgEREAEREAERSIrAA/NjcMDW3kfKuP/lBIFNDFw+ATy0CO2SqoyOiYAIiIAIiIAIJEOAHfHo3MGIM7d/NBh/TxhYWVdMBLkKjZOpok6LgAiIgAiIgAgkIvDPxcMRZ1vvRpPx90SAeQKWjAG5CS0T1Us/RUAEREAEREAELkHg/xYMxXbbaCcajb8nAqzs35oIWIGal6inDouACIiACIiACAQI/HHZaGyJduPviQCbGBg7AuQ6fKAWFgEREAEREAERuASBJSOxavOs6O75e8Y/4ee8oSBX4qVLVFuHRUAEREAERMC3BG5cOgpLU9Lzt151eocGLA17JzTSwfxuec0ZAnI9Svu2hVVxERABERABEUhMYOV4fLN2WvJG2QzplP7g0vHg7sAjgE0MeMbcdgl03gGRYMftt3fePvcuA6cNAGfFBMIG4jjpLAZ3mTgIxnMGFoLzhiGea5Azcf31WwREQAREQAT8RiDLilEYZlvpekb6cj1xC7NgFLhqCjh9kNuD3zATnDvc9QqM6AqO7u6KhB/ngzMGgUM6gAtHg3uWggtGgsM6gc3qg+N6gRZmZFdweGfwuzng8onghN5ueM/LsHupG9fi23cTFPbde6ek3FYnL72pfXCKa/Cs3xpa9RUBERABERCBCwS+n46BqyalzPibEbVef99W4NQBYKVXQNsjYN4IsOlH4IguYJvPXOMPgEvGg5/WdgVD+ZfAH+aD1V8DV0wCy7/segGafeQKglHdwC/qgCYg6lR1H/VrBtsMfsM64Ke1wAa1wJafuMLBvlvaH70JTu6X8vJ7IiB2OLZyhUTAhQtBX0RABERABPxDYP14tF09xXW5X67Xn/CcCYABbcBpA8Ea5VwPQOwosIsuRz0AACAASURBVO1nYOO64IzBrqHP/hS4eTY4qjvYqzlYoiC4cAxYvSx4cDXYLyAiShRyvQn2WN+aFVxvwMQ+F4cXLO/9Ky++961whxASHjNPQMIyJvfdRMC2WHBmP8QB+It/Wlw1FQEREAER8D2BQ4vRasWElPecPaNqAqB/G9e1X7uSO1Zv3oB2n4MtPgYn9XUN/yMPuW79Lo3A9TPBSiXBFZPBamVcAWA9f5sHUO5lcOkEVwSYOLDhADtu8wAsz4z2AHj1uOAJGIH1HIX/+f6CEAAREAEREIHMT2D7TDSwDXJSOnbuGU3HIJsAaO26/bs3dV3z71ZxhwBsnL94PtdVn/tZdyigyqtgq0/BRx4EJ/RxXfafvwvmetYd6x/fG3yrvOsZsGGAgW1dEeEJAE8EeOP96ZkDkLAe9t1EgK16WBCDDQBuy/wtrxqKgAiIgAj4lgDX4tNl49I+y94MsM0BmDfcnYRnRtSMtXkG1k4H10xzJ/MVy+vOD3Bm9AdWAjhhl7iG11sZYCLEe3thvd55YoMdjN+Wlz3oaEEMNgG4z7cXhiouAiIgAhFCIAsAe2fVO8MYgGvw/sIRF2fDp9agmrHcNAt88n/guhm/TseW7dnkvqK5QfMIDGyXNg9DasuUEeGtXrb50bpJWAbgTgBX6rrLsOtO/+Gk72N2jeklAiIQIGAu2PcBdAMw6PwN+GsAnQGMADBc73QzGBIbgx+2zP614U6tATVjaev47TNxXO/cnmW/nsSXOFwk/jYvROxwsE09jAEwTNdbuq83/Wcvfd+KAdAvcH+z51RcJSsgAn4m8DcAEwAU01hs8C6DH0vgX8vGYKOtvU/KgIfTMNtywm0LfysqEpbJym3u+oTHMuK7sVg8ynlewMfBo6+UReA3BO4BUAbASAB3/+asDoiADwiY+rU/wP0+qGskVPG+uUOwPS0iwAylMxlvWWC3vm9B6+3bMW/83vttx2y+gP2+EC+weY/1tu2cfdq5uOXg/JHu+n5vsp8X3wy8fbflf0M7uWv+L4RZ5qZh8wnMK2HppVYQ2NDF0nFgfCw+ioTGURl8SaAQgD6+rLkq7XsCBQE9qS3EV8FDS0bjO+tNmwFOidG0cDbJr/5bYI2y7kZAtmufrd2vU8XdFdBWAbz+Kmiz/BvVdXf7e+M1d1Jg3Rrgl++BtnTQ4tmGPrOHusv/bOMf2wSoZGF3i2H7/snbbhgTCo0/dH/beYszexj4YXV3SeHisaCtHqj8CtijWeqGHkwwLB2Hn48sQdMQ81d2IpCYQBcAf098UL9FILMTaHJ+nP/BzF7JSKvfmVl4evZA7DXDnhIRYL1sm/1v6/xt0x77/Op915jvWAjaTn+2I5+t798yF7SdAC1d+z1nGFixhOu+t10DbWMg28XPNg2yvQFeKeIa9n6t3U2EZg4GD68Fy7wAzhziigZbZdC0npuvCRDbftgEie0QOKidKxbMM5ASMWNhzPivmQquGYuWkdY2Ko8vCTwHoJ4va65K+5rAKF/XPryVf2x+DPbY+HtyhtNc/F9/4Bp8M7Rm5KuWduOZez7vc+42vj2bgT/MA4vkcQWA9fRtoyDbAth277NVBHbs45qucV85GSxVDDSj36ele752ZbB5fTDfc+CAtu53i2tbDdtzBgrldJ8hELfC9T70bO6KCvMWJFcPz/ivmoyf14xFr/DiV+4icIGArQqwiZN6iYCvCEz3VW0jrLJcjxdn9scx62FfzniaByCmo2tol00E233hbv9rD/ux3rgNBUwbBNrOf9/PA3M846ZnHgATAOaiN2Nv7nrbSrhJXfe4PVjo8f+63oCujcFxPd29/60sj/3X9R6UfdH1DFQp5cax4QQbRrAHEJkXYnB7sHuTlLn/ree/fjq4erxzs7UlanqJQKQQ0L0wUlpC5QgZAV30IUOddEZcgWzT++OXywkAc+fbxEHr4X/5Prh6qmvorTdvRtjc8Wbgp/YHf1wA9mjqCgDb6S92tOsBMHFgzwywZwRs+AZsUg/s9JU7tLBuOtjmU3cugYVr1QAc0wMc1hkc092dB2A7D5r4sLDmIbBnD5i3wR4rbM8mSG4SoJ23Rx6vGY/RSZPQUREIK4EZYc1dmYtAGAhIAIQBeuIsuR5V5g3F2csZURMB5ikwV7t9d34HZvt7vy2+F84EhYU3g/9acXcIIKm4FsZLy4YaLIy9zevgvb1jNmvfC+ulZXlertxWDotjjzzeMBWzAVyduP76LQIRQED3wghoBBUhtAR00YeW9yVz43qUj03HToFJeRB+WuS670d2c415UmGCfcxEw3ezwTXjsBjAtZcEoBMiEF4CuheGl79yDwMBXfRhgH6pLLkW9WxTHOsxZ5RhNhFgPfmMSi816Vg9bJvfleOcB/7ccql667gIRAAB3QsjoBFUhNAS0EUfWt7J5sb1+HLp2LQ/MCg1BjqYYc3427yF2Bj8OBP4c7IVVwARCC8B3QvDy1+5h4GALvowQE8uS25C4+XjM9YTEExjnzhtM/5b5oBzh2A/gDuSq6/Oi0AEENC9MAIaQUUILQFd9KHlneLcjixB/1WTkp9gl9j4hvu3GX/b22DOQMTzWzyR4goroAiEl4DuheHlr9zDQEAXfRigpzTLvbPRevWU6PEEeG7/OQOdnv9fUlpPhROBCCCge2EENIKKEFoCuuhDyzvVuW2ailFrp0a+J8AmG9q2xAuHI44LkTPVFVUEEQgvAd0Lw8tfuYeBgC76MEBPZZZZ1oxD7w0zIn9iYGDM/5lU1k/BRSASCOheGAmtoDKElIAu+pDiTnNmWZeNwRTbTCe5TXfCMQfAXP+LRuEAl8MeraqXCEQjAd0Lo7HVVOZ0EdBFny58IY1847cjMN021YkkEWB7DMwZguNciVdDSkOZiUDGEtC9MGN5KrUoIKCLPgoaKUERb1w8DAtscx3rdYejt58wTxv3nz8Up7kRJROUUV9FIBoJ6F4Yja2mMqeawF0AmgO4AcAYAFcBaAbgD6lOSRHCQeC2uUPwnT2IJ5wiwJ4FMCcG5CbUCQcE5SkCGUDgX+efTdE4kI7dC23Dqkbn74/XZ0DaSkIEIpaAPfv6ZwBnAJwDMDNiS6qC/YYAgdsWxGDDj2ESASY8Fo4EuRFVflM4HRCB6CKwA8DpwL2QAJpEV/FVWhFIPYG/ArCL3USAfT6W+iQUI5wEOBl/mTUQR7cuCK0nwOYfLBsHcgNah7P+ylsEMohAucA98JfAp3lG9RKBTE+gT+CCH5Hpa5pJK8g5+Pe8Idi7LTY0IsB6/o7xX4evMylSVct/BOwJlQsD98IG/qu+auxXAk8B2AUgl18BZIZ6Mwb/m9kfDLYnwIy/bU18bjVMOOolApmJwEsAtgOw+VF6iYA/CEzrg47+qGnmriXXI++cwThtM/SDMTHQ3P6rJ4NHl2Nw5iap2gWTAIvhr8yOT/mE827AJxAZ7ydR9/uHMJVPo17ElMll8ynz4t1gtonS9imB02vQP3YEeGQJbAjgap9iyDTV5nLknTMIP9twQMKleun9boJi3TTwwAIMAWDuUr1EIE0E+BRK7C4NHq8KHqsSWe8TkVimauC6gs4crTTxViQRSJIAN6D9yonuhjLWszuyDAOSDKiDUUWAy1BqXgzOZZQXwHr+tgXxuomwNdJXRhUMFTbiCPBRvHygPHj2TfBMDb2TY/DzW+CmwhIAEXchR3OB9sdiuGf8rXdoN/k1U8DtszFJN/loblm37FyFEvOH4URG9Pxtw6F1EzA0sGdE9MNRDcJKwATA/nISAMkZfu/8OQmAsF6vmS5zrkUrm8iVuIdov00EHF+Knpmu0j6s0IE5eMOGd0zcpUUI2PWwZQ44awBWnl8XfY0PEarKQSAgAZA6r4cEQBAuQr8meWAxhprxv5RR8DwB30933L1+xZRp6h2/EDUWjcRJ26s/NSLAjP/3c8FFwzENwE2ZBogqEnYCEgASAGG/CH1YgCu4Hp3M7Z+455/YMFzwBCxzlnrZFsF6RTGBIwtRd8nYS4u+pNrfthieNRAbANwdxVVX0SOQgASABEAEXpaZu0jnVqN3wjH/xDf9xL/NE2ATA/cscJ4TkLnh+KB28YvRbPFo/JKcJ8DE34/zwdgYrAPwex+gURVDTEACQAIgxJecr7O7wjP+yfX8E4sAzxMQ/y1iNAYc/dcQN6Lp8gmX9gA5xn8BODcG27ga90V/jVWDSCTAx1EoTqsAUrwCQnMAIvEqjpIypdTtn9j4e7/NKDibvyzR5i9R0uSXLebeWAyy9kw8B8Ta2fYO+GYgjnIJ7r9sIjopAukgIA+APADpuHwUNaUEbMJfatz+ntFP/OlNDNw5F+MBZE1p/goXmQRs8ydb7WFG39raPrcvBOfF4CDX4cnILLVKlVkISABIAGSWazli63GppX6JjXtKf3uegGPL0DtiK62CpZTA1ZunYvbGmQFPwEJw9iCQy5A9pQkonAiklYAEgARAWq8dxUsBgf0LMOJyS/1SavQThzNPwNqp4KYp+CYFxVCQCCfw4wzMtO195w7BaX6LghFeXBUvkxCQAJAAyCSXcuRVw9ve13PvJjbi6f1t6ZoIOLYMvQBkiTwCKlEqCNy9chwWcTPKpCKOgopAughIAEgApOsCUuSkCZxYif4ZMeafnEjwlgj+NAcTki6JjoqACIhA0gSiVQD8HKZnF2gVQNLXkY5eJHDFubXokZJNfpIz7ik9b54Am0h2dCkGaYngxYbQNxEQgcsTCKUAMKP9y1vguTfBszVAe7CO/ba3d84eSuR9TxjWC2dx+RYY+7L7ab+9+N5+/cH8lAC4/PXk+7M/r0O3UBp/TyR4noBDizHM940gACIgAikiEEoBsOAlcHg+8Idy4OGq4JwXwXGFwOnFwCUlwfGFwENV3O+Ti4AjC4A7K4LH3wCnFXXj2u+Nr4F57gG3lgc3lwWH5QO/LZE6V35aRYIEQIouK38Gsh54OIy/JwI8T8C+BRgN4Gp/toJqLQIikFICoRAA1ktfVxrskA3cUwl88wFwR0Xwj7e6QqDOQ+A3L4ATCoMmEj55FJxYGFxTGnz7IXBTGVcobCgDNnkSPFwN/Oox8GR1sMq/wL2VwTbPgtvKu96FtBr3lMSTAEjpleWzcFyHtqtSsLe/Z6yD9WkiwDaXObYU/XzWBKquCIhAKgmEQgCYy753brD2A2C/XGCOu8F1ZcBX/gGyNtjsKbcnv740OKc42Pgp0L6bl+DtB8Cj1cDh+cHuOcDPHwFP1wDbPgNurwC+dC84IDdY9X7XY2DDASkx5GkNIwGQygvMD8H3LwzOUr+0igRvs6AfZjhPj/NDE6iOIiACaSAQCgFgRnlaMXBUAXfcfkcF8KeKYIm/g6wFNn0K/K4suDYgAL56ElxaEtz3OljxfnBwHnDlq+DuSuCXj7oCoNXT4LE3wK8ed+cAmBfgWDV3bkFajXtK4kkApOEiy8xRnJ7/pIs7uaXVaGd0PG844Phy9ARwRWZuA9VNBEQgbQRCIQBswl98VbD+I67Bbvy0KwAK/dUVAF8/AW56DVxTCpz1Atj8GfDtB8H3HgLHFQZnFwc/fhjsmRPM+X/uHIKcvwcXvgx2fh784jE3/IHXJQDSdhUoVpoIxC/BEHP7W487ow14RqTneQK2zcTUNFVQkURABDI1gVAIAOtZmwiwoQDv7czmr+m66+2Y/bbZ/3wb/PRx0Mb77bs3+9+Lx5puWPt0widI0/JISS8+PWHkAcjUf4cUV+6Kn9ehazgn/KVUIHiegGPL0F8TA1PcvgooAr4gECoBkFKja4a+5bPuHAATBSmNF6pwEgC++FtcvpLn1qGnGf+dgQe4pNQYhyuct0QwLhajLl8znRUBEfATgUgTAGbIPY9AqIx6avKRAPDTvyOJuno7/FnPOlwGPS35ep6AQ4sxXJsFJdGwOiQCPiQQiQIgNQY51GElAHz4J/GqzPXoGA1u/0sJBBMBtkTw6FIM9OqkTxEQAf8SkABI3TCDBIBP/yv2VD/H7R+hE/4uZfQTH/cmBm6fjUl6gJBPL2ZVWwQCBCQAJAD0Z0iGwM+r0coe6ZtSt78Z2d1LUz9EYHEsrvfeszTleSY29N7vXUt+Ww5vOCDwFMFkaq/TIiACmZWABIAEQGa9ttNar38BKOtFPrIEw9dNdQ26GWQz0vY2I7p7Cegds99muOOWg9MHgu9WAfcud89bmIRGPaFRtuN7lrnpvfs6OHuoG3/ucLBgTnDLXPd8Umk4cZe6eXjpW9ksrOWxdxnYvan7ab+dsgYEgYW3Rwn/OBMzvbrqUwREwF8EJAAkAPx1xSdf2/8AKAWg5taZGDRjANj5a/C7OWCTumCrBmDz+uDWBWC/1uDHNcFuTcDtC13j/Wlt8P03wIbvgZtngw1qgR+9BS4aCy4ZD9at4aZn4sGM8OKx4IdvgC0/ARt9AM6KASf2Ad+xXbBKgCsnu3nWtydgjQK/HQd+/QHY7CNw9VTwy/fAz2q74b4ZAnZoCFoZRnUDp/QH7/09OG+E+9vS6NHMLetPi9z8pw8AASwCnA2D7koej0KIgAhkFgISABIAmeVazqh6PH1+57yGj/8HS2cOApdOAGtXBkd1B4d2dI3uywVd4z6iK3hgFfhacdc4534WXDcDHNHFFQYtPgZjR4M/zAdffxWcMgB8v6rb23eGExaDdaq4ceYMAxvWAcd0B2M6ugbbPAndGoPje7tpVC/rGvNyL7mehncqu79XTAbt3LieYOtP3R5/7UquaDGxsG0hWLWU67lo9Qlo3gUTH+YVmNgXnDcMHNMJm6zeGQVR6YiACEQ+AQkACYDIv0pDW8LHGtfB0col8Yv1tk0AfPAG2PozcNEY1/DWre4aV/MGNK4LPveEKwAK53KPzxjkDgFYL94MvQ0L5MsOmmDo0fTiEIK590sWds+bB8F68mN7uEJjeGdw6gCwZgXQDL0ZcuvBT+0P1nsTPLQazJMNfK+qG69eDXBsT9eg718JmgBYMw38+n3X85A3m+vBsLRGdnONv4mAyf3ABrXBOq+DzzyEydosKLQXm3ITgXASkADI/ALAXNqvAagTeFcAUBrAiwAKAcgN4FkAjwF4AMDfz7uD/wjgTgA3+80gtP8E/Qe0cXvm5nI3t7oZYTPI5lZfc37c3FzzI7uC71cDD64Gcz7jioPsT4LrZ4AxHVwjbR6AhaPB7+eBVUu7LvkujVwB4E3SM4O8fiY4cwj4+Tvg6O7gkA7gsE7gpL5g18bup43tW1lsjsAH1VzPgwmM+SPBbbFur354F3BCH3DfCvCt8uC66eCntdzhCquDzQmw8thwhgkTK9erRVwxYPk2fg/8eSNiwnlDyiR526OYbwJwG4DfA/gzgH8E/l+PAHgKQHYAeQL/weIAXg3MPXkdQHUAtc6z+ALAuwBKALg7k7BRNSKIgARA5hUA2QCMOW/EWwN4JcHNxgy/jXFXBPBG4EbzIYAGAL4G0AJABwDdAeeRskMD6UwBnD3lxwPOjnJ2fACA3udvct0CcSyvZueXl30F4DMA9QG8D6A2gDcBVAVgAqRM4Kb2wvnx54KBsuUE8Nz5PJ4B8ASAR8/n818AJmDuP5/X3wD8JSBO7KZqAsVusCZSrg9sbpMlPf+tE6sxdHBbd2zfxs0/ehNsUg/s0hjcNMvt7Xf40nWnb5wFfvU++MW7rsFu86lrnK2Xbl6BPi3BDd+4QwHWYzdvgr3NC+BNArQe+IKRbi/exILNKZg52BUK1vu3+QCbZrtzDixd6+FbGiYKbOLgqingF3XccjqTBwe5ZTBD3/4Ld6zfPAQmCkyw2HyFxh+6ht8EwK5v3eGGBm+Dg9uDH1YHvzUvRyzGnb8WsqaHZSriWpuZwbz2/LV3Q6A9fwfgjoDR+z8A9wba/r6AIbWJmiZW7fowg/p4wKiakLVrKEdA2OYHUBiAGVgzoiZ8ywGoDKBa4Jo0Q/segLoAPgbweeD6bQqgJYC258vSMXCN9wr8Jwafvy6HARh9Xjjb/8H+G9PPX7cTA8fsv2FbL1v4zoE0mgf+X/a/+Cjwv3g78B+sFBDpJQEUC/wncgVEgtXH/jMmzOy/ZeJcLxHIEAISAJlTANhNxG5CdhMNxsueLnfN+RvkjQDsZm29E7sx2Q3ajPWDgRuz9XTsBmY3swIAigJ4OSBAvBux9XbsRvhO4KZoN2ITDiZIvJtx48DNz7shm0CxG6sJD7vJ9g2IkSGBeo8MiJYJgRuy3bAtXKfATd2EzieBG/9bdvNdNxYD1k0Dx/QAuzf59Qx+M6g2gc+MqNebtxn13tsm9FkP3QxqwmNmZL3fZuy9cXev92+fdszCWHxLx9Lw3nbO0kg4s9+OWTgnbhLp23k7Z2G8/E1wXFgFkGhp4YXjtkpgmVueNZPBnbNhLK0t/wfgSQDPA8gLoEjAmJqIM8Nl7Wdtl1BEmrFrD6Dr+d5vHwDG39rE2sPEhRnOEQEjavnYxkRmMC2sPb3QxGeXQHtZOm0C7WbpNgHQCMCXgevj04Dhrhcogxlz6zWbYbe2NUNvBt+uNxMAJgRMEFg9TCCYB8zq5gnPhwPXryc6rff+h/PXm02Q9ATndefLcFUw/ljJpGlieV4yYXRaBFJMQAIgcwqAsecNpt2k9HIfhWss7OZtvUkb4rDeo/UazQ373MiOWLVmitvbbt3Aded7htSMqRnSzXPAjl+Cn7wNzhvpGko7lxnfVncTQ+0b4FRAjJkgM8NaM+DFKR8QcWZIzSiZwPOGkUz8mbvbeu0mDG8NXItX6mLMEAImyMwjoZcIpJuABEDmEwDWszGXu14pJHB6DXqvmOD2kq23ndD4ewY+YU88qfNeuIz8tDxtud7l0gxGWSxN2zJ4z3w9PCiFl1Cog9nQmw2D6SUC6SKQmQTA2TfBX70v8Xhge2zwr8Kl4qmD0bAVsLlOdXNI5d+Ca9HMRIAZ3csZ3KTOOYY6QbyEv82Ae78Tflo6Sf320jcjvGHmxfH6C2EDgsB+m/t+3nB3ieCF84FyJP7tpZvcp8WzXQ/PrXaGV1JJUcFDRMCGW2yOj14ikC4C0S4AzJjbY4PtfawyuP81cHsJcEMRnIkrijUshpksiHHMi9HOZzHM3F8UqzcWxSkLt+81N56XhqV3uQcMRYMAsIlIeqWBwOnV6L08DSLAJvtt/MY16Laczwy3TRI0Y2t7ANiGQHbsx/nujH9b/mfn7LjFs1n53m+Lb5sM/TDP3TDINvMxMWCTEG21gJ0zI21xLB3bRMjStpUAtgLB0rTzds7StqEL+52c4bfzFs56/vHfOhPO5LJPwzUUoig2mdaGXvQSgXQRiFYBYD14M9THXge3lzw/b6owdsUXxmzmRi0+gP/wMWfSuM1Ps7lq3r3MPu337/gg/uaEy4maR4pilsW3dCw9S9dLP7EYiAYBoK1d0/GX4Ea0S6knwHrg43u5+wRUKglOGwj2bgF+9o474376IHc1QOVXwUYfuksBbaZ/rUrgikng3//iTjgsXQxcPgnM/pS7KZDtBGjL+Gz/gXafu5v9vFIE7PK1u/LANhuyOJ2+cnbxc8SB7STYviFY+RV310HbcbDCy27clAwTWBjr+dvjjtOBT1FDQ8AEgA316SUC6SIQbQLADLP11q3nvroQyFzoxSedVW7p4mCR+RRKWnqWrqVv+SQWAtEgAGw5kl7pIMAN6JgST4D1us1QW+/ZevdmxL319raFr+3yZ8sBTQjYlr+2g1/8WrfX/k2Mu0WwbdpjO/3ZHgOlX3B7+dbrb/6xKw5s1z7byc+WJdoSwGJ5wIHt3M2C4la4QsP2ELDdCC0tW61gmw3ZFsS2lNBWGCTX+/d6/qdXOks6Q7X8Lx0t5PuoEgC+vwQyBkC0CADHEFcH95QBd+bHT8yP+nRX5mQMiASpWLrMi48snz2lwTPVLwoBCYAEoDLz15/Xo7t5Ai7VezajaUbfetzOMr4lrvE1QWDbA6+dDlYtA/Zu6a7ntw14apQDD65ye/YzBrs7+NlvEwhDO4GlirlDByYAbK//ro3cjX5su15bo2/7ABTPB/Zq4S5XNINvzwIwQ28eAcvXdv+zZxfY8wAsD1tSeDkB4PX89y90luVl5ibNTHWTAMhMrRnGukSDAPj5LTC+Arg8H87wSWe5sa0sCsXrVj6BD1bkw2nL38ph702FHc9rKPJPUx7yAKQJ228jcQNaXG44wNbaD2jr7r9vLn7bQ6DNZ2DfVq7r3oYHejUHbWvgBaNcD4AZafMS2IY/+Z5zhxDKvexuOfxJTXcnwKb13A1+bDihZ3Ow7eduuiYSHv4POKE3WKW0m595rmxI4PN33Q1/TCjYpkC2iZEJg8sJAK/nf2aVs6fCbwHoSKQSkACI1JaJsnJFsgAwF/zJquDmIjjL/M7eILbhWzhe1zEfum4qjLOn33DKYw9Qi9iXBEAGNs2xleh/KU+AzfC3SXlmzG2bXutp2+Q8M/j2cJ+tse5ufTaBz44vHONu0GOu/CXjwFoVXde+eQe8yYMWd/4IcNlEd3Kf7QZo3gTLw2b8W1wbarDnEtg5Z4jAJgDOdOcgWFwz7BbOm5iYlAfAev424W/HLGdzngwkpqRCQEACIASQ/ZAFH0fJA+Xd8e7EE97C+dt62vvLguvzYRf/5GwmF/bm4B+Rc1MB7Fz+vDwAYW+MUBaAa9B45SVWB3iP1fWGCsz42nd7J14C6IWxyYM2CdC26bUHBXnHE8bdaXsABNLyPr107dyF7wEXf8IwZvC9+EkZfwtrE/7U8w/lVZSheUkAZChO/ybG5/DU5vw4cLhyZIgAp9dfDVxfFOR/nW3pbU6S7dYZKa8r+bKzhX6klOc35ZAH4DdI0n/g+Ar0u5QnICkjm9yxHxe4jxY2Y5xc2Iw8b8LAev6HFmH4+cf/2pbOekUfAQmA6GuziC0xgT/uy4sZ20rg9OWWwAXTI2CT4AK1iwAAIABJREFU/OwdVw7ntuXHFv7beYaHMbPng9i29nqlkIAEQApBpTYY16HV5eYEpNZQh9r4ez1/2+8gtXVX+IgiIAEQUc2ROQrDe1Fmcx78uOcSS+CCIQDM6NvM+nh7KmoRnObDznM+Eo713xJ41kvmgByCWkgABBEy16PL8vEp31wntaIgWOHN+FvP//QK5wmPWuoXxGskBElLAIQAsh+zIHALc6LJjwWwN74ieLp6cIYGvDX2R14Ht72IY7/kwwS6Dx9LjN0281GHJTGVy/yWALgMnIw4xfXonJHDAcEy+l66Nl/AxvwDO/xlBAKlEV4CEgDh5e+H3P/Ep9BybX4c2lkaJ00I2MQ8z1WfWm+At/++Gf5faoL7yuHUuiLgyWfRm39CvssAtYe42RNC9UohAQmAFIJKTzCuR+uUbBbkGeFwfXo9/3OrnUfzeltipqfqiht+AhIA4W8D35SA/0ON43kxdduL2LW/PHj0dZy1zXFMEHg9eUcYBPbR90SCnTP3vn2eqIKzByuC20rg5J68WMRsaHj+ceH3pADinYHHg6cgqIIYAQmAEF0HNjHQVgd4s/jDZeQvla+tNnCW+s3G+BAhUTahISABEBrOyuUigSv4ezzOR/DmqmcRsywfzqwpAv7wMk7ZA3iOVgKPv+6+7fvh8uCPJXBmYzGcXFUAXJkT8/goPuZ/kQeAjeun9GWPFO+a0sAKJwEQ0mvAlghm5MTASxnz1B73JvydWYkOIQWizEJBQAIgFJSVR3IEbIb+80OBcrwHH/Jf+IL340v+CfU3A9UBx7X/5+QSSea8Pdm2czJhdDoBAXkAEsAIxdeMXiKYWmOfOLx5JKznv2cBRoei/soj5AQkAEKOXBmGicAfAHQMU95Rma0EQBiajevRPBI8AV7P/9wa9AgDBmUZGgISAKHhrFzCT+BeQF7M1DSDBEBqaGVg2HNr0SOcSwQ9439iGQYCyJKBVVNSkUVAAiCy2kOlCR4BG0JoG7zkM1/KEgBhbFNuQIdweAK8pX4B4x9GAso6BAQkAEIAWVlEBIG/AmgdESWJkkJIAIS5obgB7ULpCbiw1M91+6vnH+b2D0H2EgAhgKwsIoLA3wC0jIiSREkhJAAioKHOrUGvUGwWZI/7tU1+NOEvAho9dEWQAAgda+UUXgL/ANA8vEWIrtwlACKkvbgeTYM5HOD1/LXUL0IaPHTFkAAIHWvlFF4C9wNoGt4iRFfuEgAR1F7BWiLoLfXboU1+Iqi1Q1YUCYCQoVZGYSbwbwCNw1yGqMpeAiDCmotr0SQjPQHebP8z7va+EVZbFScEBCQAQgBZWUQEgQcAfB0RJYmSQkgARGBD2SN4M2JioGf8Aw/20d7+EdjWISiSBEAIICuLiCDwEIAvI6IkUVIICYAIbShuRJv0eAI8439yFfpGaBVVrNAQkAAIDWflEn4C/ztfhC/CX4zoKYEEQAS3FTegY1o8AZ7xN0/CeZdY1giuoooWfAISAMFnrBwig8AjAD6LjKJERykkACK8nbgBXVOzRNDb5OfAYgyL8KqpeKEhIAEQGs7KJfwEHgPQIPzFiJ4SSABEQVtxHVqkxBNgPX97sM+ZVc4Tsa6IgqqpiMEnIAEQfMbKITIIPAHg48goSnSUQgIgOtoJyS0R1FK/KGnI0BdTAiD0zJVjeAg8BeCj8GQdnblKAERRu3EdGiU1MdAb8z+3Wo/CjKLmDFVRJQBCRVr5hJvAMwDqhrsQ0ZS/BEA0tRYAm9VvwwHW49+xyP207X33L8SIKKuKihsaAhIAoeGsXMJPIBuAD8JfjOgpgQRA9LTVhZJyA1p4EwPN+J9ejV4XTuqLCPyagATAr3noV+YlkB3Ae5m3ehlfMwmAjGcakhS5EV3nDgFPr0F/AHqqX0ioR2UmEgBR2WwqdBoI5ADwbhri+TaKBED0Nv2V3IjiWucfvQ0YopJLAIQItLIJO4FcAGqHvRRRVAAJgChqLBVVBNJAQAIgDdAUJSoJ5AHwdlSWPEyFlgAIE3hlKwIhIiABECLQyibsBPIBeCvspYiiAkgARFFjqagikAYCEgBpgKYoUUmgIIAaUVnyMBVaAiBM4JWtCISIgARAiEArm7ATKATgjbCXIooKIAEQRY2loopAGghIAKQBmqJEJYEiAOx61yuFBCQAUghKwUQgSglIAERpw6nYqSZQDMDrqY7l4wgSAD5ufFXdFwQkAHzRzKok4CyLriQSKScgAZByVgopAtFIQAIgGltNZU4LgZcAVEhLRL/GkQDwa8ur3n4hIAHgl5ZWPUsAKCcMKScgAZByVgopAtFIQAIgGltNZU4LgVcAvJaWiH6NIwHg15ZXvf1CQALALy2tepYCUFoYUk5AAiDlrBRSBKKRgARANLaaypwWAtb7fzUtEf0aRwLAry2vemd2AjcHnhJZHoBtkXo1gBsze6VVP18TKAugpK8JpLLyEgCpBKbgIhAlBBqcnxH9A4B+ALoB2AugSpSUXcUUgbQQMLH7cloi+jWOBIBfW171zuwE7jk/I3oLAAbeqwDclNkrrfr5mkBFAC/6mkAqKy8BkEpgCi4CUUSgXgIBoD3So6jhVNQ0EagM4IU0xfRpJAkAnza8qu0bAr8A2Omb2qqifiagCa+pbH0JgFQCU3ARiDICNu5fPMrKrOKKQFoIVANQOC0R/RpHAsCvLZ/Gek/NAsZeCy7QOyoYLLoWXKi2ioq2sv+U/bcmX+nM20jjP9TX0aoDKOhrAqmsvARAKoH5PbjdoPbeCe7WWwx0DWT4NWD/rblXSwCk8T77JoD8aYzry2gSAL5s9rRX2nopZvx33qG3GOgayOhrwP5bEgBpvj+9DSBPmmP7MKIEgA8bPT1VTlYAXA/+hOAYBifdIKWd0Tfy36SHVHJJbfgQCTKnDa4ITvv+hlmQ6uTU4dbIrIMEQHruTqgNIFe6UvBZZAkAnzV4eqt7WQFwPbg7+xOMHzKYOzPYUNtNe/8HtRn3RqUMTztNhudW16BbuRyDcjljBTDunZo88FGd5MNaOgD3VCrPg02+TFn4BHl75XHKFIQ2ONC6BeNefYE7I0QEpLaeFj6+b0/u+lNW7oxAESABkK471DsAcqYrBZ9FlgDwWYOnt7qXEwB2c90F8OBnH10w0glv0M73q92el31P+HaMcIJjFwTE79xwOwAe6dqeh5o2dI1iwrA3X+zNJUzTye/2i+fSZOgTGNcL8W8FdwM8uWkTD75fk/EtG/+mTE7ev7tY1z25nuD+14r/yqAnLOvOQDntmNV136ef8MT4UW74RGLDSfu2RPwCnA40/JSHJ0zg0S5tuK965QvtcKHsCerzq/wDDH91zBMQgbysXEenT+XB99/6VT1+k3bCtjEje3uist4G7rz518e8Olm7/6oMVt6r3GM7Ld5NF79beY5NGM243I84zHbe8tt0Pa47s7rxLM6ZNSu5+x83cOe1SeRl+SUuw7W/Pnbh2kzA8jcM0nhOAiBdd6j3ADyfrhR8FlkCwGcNnt7qXkoA2E07vlNbnt62jYcG9LtwEz3Y4EPua1DfuanHd+/CvUVyOt/3v/82T6xYzvimDRnft7dzbF/l13hi/hyeXL6M+17K7xyzm+3hXl15PHY+jw/qzUNff+oc35PrcZ74dhGPz/7GER07b3Rv5kcmTeSBWlV4cs0qxndp7xrAxCIg0Q0+ocFJ/N0xOolv5gEBYHU9WO8dHm7fwilT3JtVebhNUx6fNZNHhsdcYHCobQuesrCNv3DrFDCIh7t24Ml1ay94BizvA++9xZNrVvNI7248PirGDX/vbTzcuS0PNfqUpzZu5IGP33fSPjpsEE9u2MDDHdteyOtg4y95ZPp0HuvViftqVnPrn7j8dwRY9e7Kk2vX8kjMQO4KDN0cGTmM8W2b8+TSbxlXscyFdI/068njc+fwxDfTefCdN9xyXSLduBKFeHLlch6fNYO7A+1yoO67PLl2DQ/36OzE3f1H8Nj0yTw2eQIPfdWAR6dMcvLaX78u47t14okl3/Jw725u2KIFebhfL+f8nv/9gYdHjnCOn1yxjD/Hx/PMtq3OtbT7JnD3v//AI3178uSG9c5147Xnnsf+whNLFjO+UzueXraYu+/L4qRn6Z5cv477a1Zx62Tiq0pZHmr8OY+OH8MTi2K566mHua9yGZ6IXcCTq1YyrmA2N+wl6u/l6X0mFhQXjicRXwIgXXeoDwA8l64UfBD5qsBMyWsBTAjU12ZO3umDuquK6SRwKQHg9fL2Pv8YT61f59wg7UZ3tFt7Hura2emhmfHYV6YY9xQvzDNrV3HP/eCJaZMcY+P0el8pxD0P3ur0rs9s2uAY9kOd2ztGZ89V4NntW3nw07rcdd/tPLN0EfeVKsYDH9biqdUrLxiqs3v38Gj/nk7cvY/cy52JJyyaO75iGZ7dtZNntv7ovM/u/In7P/uEJ6ZO5Jkd293jO7bzxOTxTrq/EQG3uZ6O+L69GPdKEe6vXtGp74FPP+K57VudOPGd2/Ho6JEXOBxo2ohHu7W78PvI0EE83L6lE9by2d/wM+4tnIOnrXcK8MSsGTw5c6oTfmcW8OeftjK+TVMn/J5sD3H3/Xdwf7mXnN/HxoxgfMc2Tlir2/5GX/Lgu29wT9G83BnwuPymh2pi44Oablk7teWxft25HeDZHdt4sElD7n2xIE/P/8Zpt0ONPnPKs+fv4LldP/Hge5fwABjbt6vzzNqVtLBx+Z7k3oLZGVepLM+sW809Vq+Z0xjf/CvuuQU8vXkzDzf5jMfnzeXRji144KP3eKhda57dvMHJ99jo4TzU6HPufrUkT8XOdcoa98zfeWrdWqeuds0cnzqR+4o973LKCu7O9Qz3lSnqhD3SoxMP9+3pfD9t10vl0jxY/z2e2/mTc30cGT2CJqKM95lVy7mvwqtOOofq1XbacW+uJ7jnwbu5625w31tVuOcPbrufWbqQe/I+S/MqJORq17sJMLueEl5b+96oxJOx83hm+zb3evtpB48OcEVvwvj2XQIgXTeougCeSVcKPok8FsASALsCIuCknhTmk5ZPZzUvKQCsNwNwb5E8PLlmjXMjdQRAl7Y81Lmjc0M/Pn0K971SiAfq1uax+fOcY/vKvciTsfOd73uL5eXxGVN56vvveW73Tu7N9h8ej+nnGEfH3TtsMA82/Ji7y5flqW9jnfwcl+6Gddzz0O+dPE9v3cq9D93kGoQEQwMXbrTmRr4R3PWnLNx1F9z3va6b2W70u/4vcMw+f++GvRA3YY8t4BZ33MEBj8KBhg14fHAfty5vv8mTE0df4HCwZVMe7drW+W3DJKfXraGV1ep69tAhHu5iQqkTj3Ru48Tf3+grnpw2ya3HH27h6dg53J3jKafOO68L9OB7dnHE1tl9+3hsQC83bALvxiWNf8ADEd/sK8dTcmbnTzw1Z6YjAE6vWeWIMCujGW0TBSdmTef+10s75Tq+YD4PflDTzSshj4BX4XC3jjwcED6e6z6+6ec8PDzGib+veC6eXL7UEQPHYxdwf8kCPDx0MA/VfZsH2zTnofateWTMKDdsqaI8sWIFdxfOz1PzZzt1j3vyr46HxOtFn5gxhftKF3PLczO46xrwcIdWPLlpI8/8tIPHFszn7nw5eOqbKdx5pTu8cvaH79whnCnjGFfrLSevI13aMj5msPP9UP13eWxqgP0NLuu9uZ/kibmz3Gvzxy2Mq1bRbYuEDGwI4nfgrnsD15BdX/de6YSza8l52zETEne7wxmJry0JgHTdoGzr66fTlYJPIv85sEf4z4FPU056iUCyBFIrAI50acODngcgdj73lcjPAx/U4rHYBc7Ndv/rpXhyoSsAziyYxX0VS3EbwFOL5jOuUHYeG9CT+79o4IQ9GjOABxt+wt1ly/D04gXOjdURAJs3cvf9rtE/vfVH5+ZuY8yJb67Ob+ulvvYKT3+32TGe5q04vXkT99X/kMfHjuTpjRuc46c3beSxUcPcm7yJhoQ3+iS+m0E60PATnhg73ClrXJ3aPDVtomOYnHPNG/No59YXjPTpDesulN/qYO9D3TrxSIcWLhcTAFPd+Dv/eg9PzZjM3Q//jTsDrvrD1msf3M8Je6BNS4eT5ZNcOe28hdtf/iWeWrzQ+R5XrgRPTh53UQD863qnh3xm03pXAEybxP2VXnHyMuF2WQHQpT2PjL0ofCyv+Maf8cjokU78fa8W5skliwICYD73v1qIh2MG8dBH7/BQu5Y81K4Vj44b7dar8qs8sXQpdxfMy5OzZ7hlzfHgrwXA9MncV7Kgc87yOtyjC49PmejE31/uRR5ftoy7cz7LU1Ndb45xPrtlsysApk1g3Du1nLBHu3dg/MABzvdDH9fhkf6BHrqJinuvcK63vQWyOzxOTRzFuFo13GsjwbVg+R/4ooFzPdl15Vxb321mXOWyjucj4bV1JDAUkri9JACSvQVdLsDHAJ68XACdu0hgaMD4/wjgDxcP65sIXJpAagXAwWaNeHz6VO59IZ/jVt1XMj93587OM8sWc3+dmrQe3MnFC50b76kpYx1DvL9mVf68cwfjCj3HA02+4vGJY7mnSG6e+f47HmpY35kUdmreLB76+jNnbPzEvDkXDMCZHTsuLwDshn2l663weu+X/UyB8feM6oFP6jp1PPBmJR6fMIbx/fs65dr9ysuMH9Sfx0cO4Z5qVRzDcahDG56YNpH7arzOwy0bce9rJbnn2Qd5KnYe9xQvxOMTx/DkrOlO/J1/+z+enj2Nux+7/4IAONSiEY8O7M3dRQvy1OIFPD5iiBs2gUFKbFwu/LZx7pIFeWLebO4ukt8p6+klC10BsH4t9zzwO0cAnN2yyWmXA3Xe5PFpk7m3RFGe3foDD35YK+m8zANUrhTN3X6gTk1ngmRcgWzcU+IFx8W+v1Z1xxVuqyH23geeWLyQ+0sXdeZLmNE91KE1D7ZqxnM/beO+Cq/w1MJ5PPBuDe56+F88NXMy91avwqOD+vLUhvVO/mZwj/buyiP9e3FvxXIu1/ateWzCWO4pmIsnF8x1BICFs6Gm/fXe54H33nSGMcztb0M4xyeM5v4alXl6xVLuLZrbSfdQgw94dHB/t463uD33kzOnMO6dt7mvVFH+ErebcTXcdrzA1LjbXBMTYSl9J56boiGAS994UnbGHoH9eMqCKtR/AgLgI6EQgZQSuJwAsBvt3jzP8uQ6dw6AMyv7GjC+RxfG9+rOQy2bcE/OJ5wba1yl13hk4gR3DHjSOOfY3mL5eWTUcB5q25IHG33OPc8/4dxMzX1uvcSDXzZgXIXSTtjdTz/AIxPH88iIYY6xcnr81ose0N9xA5sr9lc358SG0W6+KXknjneJ307vz4YA+nfn4eFDHXe+GQJzpR8ePswZ8jg6dw6PxcZyd37X0Fh9js76hvFdO3L3Ew849dpXtTyPTprAgw0b0OYUWLo7/3AzDzX7mrv+cY+7dC1gaCye9bYPfFib+2tdemJeUhws3YNNv+KR8WOdIZkDX3zi5HWoWxfu+svV3HU1GN+7h5u/cW3TnIcHD3DaZm/xArR5CZdKd2/B53l02hTHsO8KTAI0oXN05gwebOGumNj9t+t5oG1r7nn+Me77uB7jSr3AvdUq0YTR0XFjeMQYtGhyIf+4t6q5Zf3gbR7s4k4ktBUB5k63a+bI1CncZS54K2uHNjwyYij3v1ODBzp2cNLY/cA9Diu7rg51bOsM9VjYg21aOG0QV9m9rmx5Y1zpl7i/3nuuIbf2tmWZ+Z9z4sd3bu9M2rR5LInnADg8krqmLI1LHU90PckDkNI7UZLhPgPwSJJnwnmQOfEg/41H+Xc8EhHv/+AR/hP/G3o7+vGfeIL/wMMRUS7jY2V7DI/yBT27PJzX7KXyvpQAcAxgi6Y8NnQADw8K9J7s5pZoCZuNS+/6fRYerFOd++rXdXtmVcteuNFbOt7b3N02Ac/7bZ92M3ZutIGlYc6xBOu5nd/JGf9EN92kDFlqj1m+Bxt9wWO93QmPTjnMe5Co/M7xJJZC2rwEJ88E9XfCWlkDS/x+tW490dK6C2FTUTeLk/Bt+f9/e+cB5lTRheFDF0RAlCJ2UVGxgYKA9N6R3juIiL0rFqz03pFelyq9gyBVOtJEQYpuNsn2nl3A7//P3NwlrNuzN5vkHp4nT7JzZ87MvDPM+e7M3LnKDvPU82R7yeqQmvNPYuZiV5XZKVj0vNSmSme/CCxw846Zr/MTAFFr16iZB1UWvT4uNm8Jdz4WqMK43Mn6W1Jc574J/jsprku9kvoV58dnHOj9TM8/VzJWyTYAJtVdj5/FbxEAqY08GQofQkTPZSimJyMdrUuwdiJYOnrXx9aJEORlZeLyXGhFQHVq7ck2krwyRiAtARC1eRPCZ/2oDZ6pTZ2zM7iNEDL4Y0SuWomQj97RBmQOz+Kg6RXpchOsHV5B8AAvOajIF1nyDFLfnrB/4HL37Yv1cKPMIgAyNg6lEutrIno2lWs5F3y+KeHGIMK1gfJJj8H11wmh3QmoSG1yrsUk59QIpCYA2Akn3V2l5vz1gTHZ3auaHtWv+fK3vrfAl+uQ02V3neXJ6bLkQP4iAFIbeTIU/h0RPZ2hmJ6MxAKAHVvia/JJjwELhJBuIgA82T8zk1daAsAr7sRzYND2eL1TcpL6lL3LcojHy2UG9gbXUQRAZkaj/8T9gYh4b5t3/RMBkHHhIwLAu/pu8tKIADBgqcJlfdt17TlpRsXV6fBjjH16wP7xRzfXqXnPQ9l71EE6lvKPGHvGvVNopFg213LK7ywtaYkASD7iZOrvYURULlMpPBFZBIAIAE/0M0/kIQIgmwUAP5I36FVEfDcYEUsDEPzOm8qxs4MNGdAd/LgfP7uuHl10Lp3woTz6rn11l++cEYgc8iEszz4K9fQFO2BXYaHvsUi2SU4JDpeNdJxv0syBy8Y3tUmRD7nh8/cPHkDIwN7qTIZb4ovTv8kuiyxEALg1ig0nosfcsmBEYhEAIgCM6Fc5YVMEgIuDzOIgn+Rg9UN5Pv1AHYUbvXMnQr7SHsfjRx8dp39DwoU/EL17N2ytGyuHHj55AqL37IH9vXe1GQDeONe/N6J3/azOHbA8UFgJAHbMtlYNEb1tK8Ina0cQszDgE+jCZ81EyGcfInrnDth7d0fQk6XVo5r8mF7Ih28n7eWw1a2E6C2bEbliGawvPqaOFebn57V3ILyV9A4E1/rIb/f6hwgAt0a1UUT0qFsWjEgsAkAEgBH9KidsigBwb4D/j4PkKf3eXRH+yVsInzEV9gG9lQMOalwPkT9ORsy6n2B9tT8szzyiHk/jY3GjlwcgcvVq7ekJfha+8nOwv/8OEratV69jZudv79sD8VvWw96hBSLHj1DH7XK49U7CjfAwhH/3OYLfHgRbg5dha9dMne5n79pOvYEw5NMP1J1+wrFDCO7VGaFvvwZ7izrquXeeAeBzCkJ6d0TYR29pZcgGIfQfLia1KQLArVFtDBE97JYFIxJfbkWRsgkwYyJA9gAY0QOzz6YIgGwWAOzoXKfqnVPw7KzVkbRztDfi6dP6HB7Bh/L8pB23qxxnboLl8XvhWL0UQTUrK6ccNXsGrtlsiD12TB3MlPj7WZWPtRSpt+fpeapn+jmvSeMQe+SwellNxIrlmgA4cRSRC+bA3qiKtgzBZZU9AG5P86cldkQAuDVWjSMiPubeu/6db0r/igAQAeBdvTJrpREBYIAASOFuVwmAzz9A1NwZt9xlKwEwftStAoBfbsTH5a5xEQDzZiJi2VIEPlUWlupVtH0BeQnW+wgJFy8m2WR70WtWqeN0A+8riqiZUxG5bp12vTgh9I0+cBw6cPNUwBTKmpZDk2uZ6y8iALI2LjlTTSCi+92yYERiWQLImPPnRwRlBsCIHph9NkUAZG5Az6oDZMfML+Dh8+z5t9qsV0h7aVDEqKGIWLlCuyvnEwRTEADBH76LxJNH1XsRbFXLIfTzj5Ud6wOk7vKVTecehNgdWxE69Dt1nV/DHLl2DSx8WJPztbqR44Yhepvz1cQiAGQGIPuGk+y2NJGI7stuo27bEwEgAsDtTuQlBkQAeEYAsHBgJx21bBEcFy8guFsbWCo8hfijh+G4cAGOP/9E3MH9CKrwsIpneephOFYHIKj6i9BfFxzcqSUcp08hjt/C2K2dEhFBfHb+JuerbtmZs3jgnf0b1iJ25zZEjPweoRMnqLiRMybD8fs5RAcs1ARIegc8iThwWxzIDIBbA90UIrrHLQtGJBYBIALAiH6VEzZFAHhOAOgiwHUGgH+7fnhmIKhaBQS//Tocv+zQXojDL8VhZ+wSV80gcFhRLf0tMxPJHgNU+SVf6xfn77Zzv4V5KmJJBIBbo9o0IirllgUjEosAEAFgRL/KCZsiADwrANJ0Gs5zASLn/IjYgwdga1lfu1NPxbmkaUvSeMTBp9cGIgDcGtVmEFEJtywYkdhbBcC11wg3BhKuOz/Jj+nl8ORhRv8tewCM6IHZZ1MEgBcJAHbaLu9VSLrLF2fuFc48PWef0nURAG6NVTOJ6C63LBiR2BMCQHfi/M2OnR21HsZ/88f1b3b8oX0Ix9oTfutIONv5VjHA1y93JyQkSysCwIge4js2MyUAePOa/prb7HRKztfL3vJ63Oy076229Ol75urJKXleUnA+npiS0/KJMC5/ES8Tbyn0MxEAbo2Fs4mouFsWjEjsCQHwT0/CpW6EC10J8QM0x/2Xy99R/QmXuxGu9iBE9ydc7Eo42JYwuTqB0/7TgxDch/BHF0JgT0JEP0KPxwkXu2n2OD7bEwFgRA/xHZsZFgB86EzvHgiq/VL2igB2/ncQbH16wFK+rLHn3qcwQKfo7FJaa89o2ozG41P8nn4UIaNGIvjLz2HhdLoIKHxzX0C2O2rO99nHYHv9Ne8RAU7eKbZFSjz5VMSBr8JS4UmvFwEiANwaC+cSUVFu50G/AAAgAElEQVS3LBiR2BMCoNo9hOUNCeNeJqxvRtjfhjCqGmFpA8KW5oSTHQlUmHCkHWF2bcK6JoQfXiLMr0NY3oiwpglh2Eva9SGVtO8GZbTZgYX1CCsbabZ/eUWbKTBKCMgSgBE9MPtsZlQA8EayiIljENq/i9q0pl75y3dh7MDZcfFv/c11+oDOYXocV6eqOzr9jXd8HO3en2Ht0FaL75peP/P+Dqct/VpBg+7++Cz/IV8idPBHCB8zHNYuHZPKxHVRG+q4TuyYnDMX+ia+JAfuWlfXcrqm5936lZ9HRMBiXLv8F2wV7kXgbdoMS1C15xAxbiRCvvwcIa/11vJPyRFyWG4XseCyWfCWsuoMnfnbu7RF/OlTN9sxJdvO2QlV3/zO+rpsLuQDhNTHpU4qLtfXJa0Kc+kXqo84ufFsEl8PHvwpQod+q5WHX8HM5XFlqNer+M26xp88oU5HVP3LpQyqTTg9z1Q5+58qQyGtf/Jv9bfeL1OqezaGiQBwa6yaT0R3uGXBiMSeEADtHtWm9Pnu/cPnCN9VIpzooDnwDmUJu14hrG1MiHmVUPt+wr+vE851JsyqRfipCWFrc8LE6oQ5dbSpf7xBePVJAs8clC9JONCGsKEp4b1nCTDw1cYiAIzogdlnM0MCgAhh06YgbP48BNWuoo6Q5cE1ZOj32iB7XxEED+oPy5PaI2zBH72r4tsH9oO1o/a4WvA7gxA+ZzZCPvtYS8PTt0QIHTcGIV9/CcfOrQhq20oNzrbWTRA2exaC33Tepd5OsFSpCHvfbgh+ayDC58+DtZb2eFzyu0Z9gHf9dnWSt4SnMNDz9fC5sxE1fRLi1qyA/R3teFxbp9YIHtgPYTOmwd6jo+ZEihGC3xiAMD6L/6vBSQ4n+I1XEfLhO4pB0HOPqDP3ua62di0QPofrNUBLX1g7B8Bx9BCsLz6iCYC8BFuTmohbvwoRs2ci4lvtXQLJ66n+zk+wtW2utc3kierxPy6/tU9P2Pt2R9iEcQj+6P2kclmbN1BlDf34XcQdO6qVQRcHriyKaI8Sho4YirApk2FtWk/Z4LMEwqZPQ+iIYZrN+4sgeGBfhI4aDlvbZggdNxqWqhVheep+BL/3lmrX0GE/JJUr+IvPYHnsLpU2+OP31QwIz37EHT6M+BPHEb5wAaztXlHlsvfvibCZPyL0+29g4TI6HXrId0NUWPyRw7D36qriKgazZ8E+6FWtXIUIlpcrqSOZVb+bNxdBNSrCUiavSst9y96tgxY3pfoXuik0XPtLSr+TRK8rP5ffIgDcGqsWEtHtblkwIrEnBEDbsoSQPoS/exA+fp4wtDLhTCfC7501h36oHWF1I82h13MKgFMdnQKgMWFTM00c8BLCq08RLnUnvF5ei/9yGcLhtpotXmbgvQQyA2BET/F+mxkVACEjhsFx7izCPnlHcxxEuBb4jxpELc+UhWPjTwiqXQ32Lq2RcPQQIkYPxQ2rRTkhfi49atwwhI8fo5xqxLRJ6tCbqAVzELd5HaJmTsG/wXYENa6vnEXi2VOInD4JCQf3IuTTD1V+1i7tcf2vPxE1aRTCp09BcPsm2hv1XAZbHqAj5s1BwtUrSLh0CQmXLyH+3DkEv3gn4s+dRcLly1r41asInzJRq4dLenaqbCN0zEhEDP8W0bOnwdavlwqLWTwXCb/uQ+jw75Fw8pg6kMfyxH2IGjcU4eNHI3btSoQP+1rV6/ofZ9Wz9hGTxyNu906V3j6gL+I3rUH46GGIW/8Tggdq7wjg/BzHDt8UAAUJtrqVETNvBsJGD0fYR2+kWE51p1uIEDH4XURMGofISWMQ98suFTdi0UIknvkNoV8NVsLK3rsLgqo8jYQDexAxaSwcB/Yg7vAhzW5yB+jchBi7dRNiVy0Fnx0Q9k5/1c58/kDU7OmIXb0cUatWwFKckHDgF0QvW4zE44cRs/YnRIz6Hrbaz+P631cQPnQIYlavQOTMaYqL49RvsNd+RtlyHNqvZlfsH7yH2H17EXf4V4TNmI6gVs1UuaKmjlVcY5YtRvSc6Sp92OcfwHFgLyKnjMe/URGwdWrr7C+ntf7y6z6EfPiuSm/r0UXrLxNGInzaFAS3aQhbrQqInj5B2U04dADWpnXV+xhuEVeFCNYK98Fx/nfVf1Q/unIFYaNHIGr9WvXiJC3ssnZuA89O6DMcyfoS2xUB4NYYuJiICrplwYjEnhAA7csSZtch/FCZsLWFtr4/sqp2185T/LzZL6C+duc/tYa2XDDkRcKPNQnLGml3/p9VJOxtTfikoiYkGj1A2NOasLQhIaABYVpNws5WsgRgRB/xFZsZEgD6ITZrVyPsY+cLY+jmGfSW8g8jfu1yWMrdg7gTJxDcpZUasGM3rkXYpPHqt71nJ/V63Jj9+xC/aa1yAtf+vqo5IbZ1+AAsjeohcuJoRM2YqNKEDvkccauWqDjWrh2QeGif+s1OU71ON/mA61yKYMHh+uG7b9e/+TeHJU3ZJ7PD9vUPx+PfMfN+RPi8OapckWOGKofD4TwzEBGwBDGbNsBx/jyu8nLG7m2wdWyj4jp+3Q9brecREzAfcSdPIGL1asTu2Ib4s2eS8rhFAHBZCt7Mn/O4xUG5lpXPDKhQVs0qsF12+kH3EVgARE2foJV15HeIWDAPYZMmIHbNClW+kAE9EHf8mMo/acpct8tT8p1agcvNry3WOQS/3g+OLWtVmOXZclodm9dD3KJZamYjbt402Pt0V29BtNWugIRTJ1Rca+M6SNi+Qf2OP34M9hpPaQJg/x5Yu2nLSeHTpyFqyUIVJzCvlqe1fjVELFqg3n7I7c5lSbj0F6zOZQDHyeOKMQufyGlaXUO/+QpxKxarMtt6dkXir3uTyq+3Y+hXnyFixQok/HEe4V9o4vIWviyICqTSX1LqR7w0pbNL4VsEgFsjYQARFXDLghGJPSEAej5BON1Rc9yOAdodOs8GXOlOiOmvfcL7anfvvAmQw629CGF9CRwe1U+bQeCNghzOU/FBvbQP2+PNg1e7axsCjbr7Z7uyBGBED8w+m5kSABvWpSwAnnoI8etWwPJYCbW2bG9ZTw3Y0atXqRkAe/f2iN+xGcEff4Dw+XMRv3G1duf21wVt0Oe74N07lACImjcLET98qcKD3x6ohAUP/tYeXVQeynHz+nMKgy07K20G4KpzBuCyOvmOZwAc587dMgMQkcoMQGp2o2dNQfj0qapc4d8ORtSieeAp9YQjBxEy+GOEDf0GCRcvKAfr2LER1tZNVdz4Xdtgb9MIsUsXIHLJIti//ALB33wNa7fOyhFymZUAqHCftlSQQr1SKlMgL4tUeAKObRtU3vZPPkbiiSMIeqKYEgAspJhb5LgRSqCETZmk3jrIYWoPQCoCgMsTMqgv4jesVul5gyaH8bJO/KolKszydFkkbF2nOf6FM2Hr3Aaxc6bA/movRE8dA1udF8B3+Krd6lVDwi/b1e/440dhr/aYUwD8ohiwbX6dcdQyzXEH8h34c/fCcfggQj/7QC0rJOzfrdInXLmsZl44DZ+gaOvQGlELZqtlEs4r5N1BiFu9TMW19emJ+DXLNaHn3GvCsxMsguwffYDYPbsR8c2nqm638L1lBkCfMbqCsDHOGQB9dunKFcQdPIAgmQHIvsHov5aWEVG+/wbncIgnBEDdBwi23rfenbs+9qc/CqicrPORQHa2erj6dp4HwOG6M9bj6LaMdP56niHdCKhIbXK42ST7FAhkVQDwIJxw/nfYyhGsTeri+h9nYHm8jHrbXHTAAjXwXrv4B0JHj0DY8O8QPWcarvBSwMK5aiqaB2zHb8dhq/4Mgqo8i38tf6slgOBOLeA4eUwJhJj1a9SUM+fFd3Tx61cmDei3DNq60yyu3bnxO+75Ll//Zifm+ndSuL4ZUU+fyjfnHxOwAPG/HtSc17EjCO7aGiFvDkDcoYPK6fO0NDsongG4fv4MwsePUi/qSbx0UeUdMXYk4nbvUOmtTxdV+xn0u1LHjs3gu3LO5z935KmUiWdArK2aImG7dgyw9eVncCMoEEEPESIWL1JLAsw4cvxIRCxfBvubA+HYvkmVL2rOjNT3ADCrIgR+h4C98ysIKkCw1a8Ca+UnkXjutGIa8vZrcBz5FUEVHkHc4tmwdWmL2Lnaq4+jp40Fv6vgujUItpfLK3ESv22Tcsoxa1Yi9KO3YclLuBF4FUGd2qs68z6DuPWa4GAGwV1fQfyu7aqsYd8NwfU/z6nfakbpM21Pw/WgQNg6t0Nw55ZwnHD2l43rEPnjFGXT1rcX4teu0PqLc9aAly5C3huoiYmzpxExbMh/BQDzLqb1Hb2f6N9Z6UMyA5DCoJPxoBVElCfj0T0U0xMCILKf9uif0Q7aaPsyA+ChTpnFbDInANbfMgNgb9cUPBUbHTAfMcsXwfLyi2rA5YE6/tgRxP+8HWHjx6qwmKULEX/4V0T9OFmtrfNAb63zEuIP7EHMhjWI274ZQU0aqAE5ctpEtQYbs3Ipgp55WHOaHdogZsEs7S45LcfN13hNVv/wbAFP6/K3HsbfadlI5nS5rNFTxyFu7Qo4zpxC1LyZqpyW0oTopYsQd2AvoiaPRuzBg8q5OHZo6+eOM6cR+v6bmpMpmQuR44Yr0RS/52cEt22sOSd2eL06w3HqJGJ+2a2FJcs/NbHDAiL8hyGIP/IromZNVXe3QeXvQdjUySqcyx3+7RcIm/WjKkPE8G/Ad+G8jh+9dYuWV/I9AM7lHnvXdurFRY7jRxHytrZpMWRgHzhO/4b4A3tha14PlqcfQvTUsbC1aYao8cNh694JEcOHwFb/JTj270bs5vXKhq1ZPZW/tdITiD98EDFrVyLu5+0IatNKlSHo6QcQs3o5Ev/5B/b3tTX8yJlT1V1+tLNeXBfLI4URt3MbYrdsQNyBfbC11zYMRvE7Ds7/jpgVAWoDInOxdumAmPk/anXkts5DsNauhPjdOxC7fStili1C2Aep7K9g/in1l5T6VjptJQIgiwOTlmwVEeVyy4IRiT0hAPgO3mjn7An7IgCM6IHZZzNDAsC5Zs7TrrwWrKbheeBzWSPmATowP8Hy6J2w5nLubt+5BfZ3NAfI110/yiknD8urOetb4vHjWy55ZcZxp+g40xmwU0rD5YmeMQFh47Rpdf5blT/Z4256uR1b18Faq5ISAyou55ksbhJDl7olxc1oGV0ei9Pzdt0/wHVJCk8pbgrOP6n+ydvG5YRCVU5m4Fwe0PuB/m1v3UDdwfMMRFJcrlO+m+W5Jdxl173iklJZOX3yvRHOdtDrqGym1V/y3Jq/ip9R1lmMJwLArbFqtVupjUrsCQHgCefsiTxEABjVC7PHbroCgO9Q3xqo7rB4vVUN0KmswfNdE0+T8m50vlMOfXuAFj8tR5PFgTXJUXkgPTuK8O8+R8iXn90UPynl63SSvGvdWreqclieLKdX5MVLBg2qqT0SnnCwXlHnlPqCM0wEgFvj1Fq3UhuVWARAxmcnRAAY1Quzx266AoAHMpe7QTU1msaAx9d54Nc/GV7TTsumF1xTzozvONMri1ME8N1qunHTs+Wr1wto7W/a+ru0mwgAt8ap9W6lNiqxCAARAEb1LU/bzZAAcBnQZFA32LHny8RGQG4XPj0wE/sZpP0Mbr9k/1dEALg1om10K7VRiUUAiAAwqm952q4IAIMdAs8a6GvhvPkwmYO45e/8hKAmDdV+gQzNnBTkE+8qI/C+IpkTAfoshV4uH1+iuYVhWnxz4JoIALdGtM1upTYqsQgAEQBG9S1P2xUBkI5Tdsdp8DP3vTrB1qc7woZ/D0u5ktqTCCwK+Mx7/tY3rTk37PETBVZ2yLpY4G+niEgK4+tO5+347eTNM/ELaLvdk+JzPLbvmp7DihJCP30f1s7tEfrFJ1pZONydukraFPmJAHBrRNvqVmqjEosAEAFgVN/ytF0RAMY5Pt43EDl8CMJGDYNjz8+wVi6n9kZYu3VSZyfY330blkrPJIkB++BPETz4E81h64+c8RkIg16DbUA/7dE0PniGw3p1g61bJ6gz8XtqJ+oFNaiDoFpVYRvQV73DgE/VC6peCfb33oFt4AAElnCeqX87IW7lYoQM+QLx65xnK8gyQooO3F1RJALArRFtm1upjUosAkAEgFF9y9N2RQAYKwAihnyMsG+/RPzGNbC+WFY7hObCn+DDcaJWr0TcT0theexeJQyiNm/Cjbg4WPmOvYi2kS56yQLErluF2PWrETVlrErPhwYlnjgKPifhRlgobJ3bqvTh8+bi2oXziJ4/E9E/rUBQSULUiK/BB/DEbt6A6NlTVTx+fC92/gyEfPIB4gLm3RQcchef7SJABIBbI5rMAHjiUT0j85CnANz6D2B4YhEAxgkAtTmvdH4ElsiNwAeKqnV6nhXglyqF9GirnDm/BIffKMh39ep0xL8uKgHA8ezNayHx97MIGTkCoWNG4UZYiCYg+JS+Os+rNAnnTsPWo5MmAObOQfzP21Qc9dRCPkLQk6UQ/PmnCJswFtcD/1bX1JMc9xXWnN39d2gzC+L8s9358+yBCAC3hjDZA2Ckc/aEbREAbv0HMDyxCAADBQA7VZ5a5w9P3Ts33znOnoHt+aLKGccc2I+wT7TT79hp85vmeAaAf4e8NQAJR39F+KKFCF8agPAl2nn5iVevqvMWOI7rEgDPAEQvXqDd5Tv3CcTv2YXo+bMQsXghboSFaQKAy6WfhqjvNRABIALA8NEm0xlsynQKTySQJQBZAvBEP/NEHiIADBYAyRwrO23H7+cQOXWCcuIJJ46qI3Q5XM0AXLyoztvn39bHCyLx7GkEPaKt+/PRyxzOrxgOGdhLzQBcu3IJtm4dtRmA+fMQtcQpAIoQrMUIiZcvqXP0bc3rqlfocnp317UlfcYZygyAW6OYPAboibt0I/OQGQC3/gMYnlgEQMYH8+xwfEoAnD2DuHWrkHDuDKLnzlCOPLhDczj++kvtAUi4ckWt4bOzDvvmCzULkHD6JGJmay+6sdZ9CY6DexG7dSOuXfwTtq4dkpYA+C2FnIc+2xC9cK56B0PMsoW4brPenAFIJkyyo25i4799SQSAW0PYBrdSG5XY32YA2EnzR39D4PXXCbd8XN4qmNl3FIgAMKoXZo9dEQD/HbSNdGRKAJw7q95rzw5eOWvno378Ww9T4S5n+fPfelhgLu23Hl895ucSN6n8ziUHPa3c/Xu2rbkdRAC4NU6tcyu1UYl9XQDozp7v/OP7E2L6EGydCX+3oWu21hRua0Uh9hZk54+tFYVa2lD0323pRmh3QkxfguNV52uHna8ZTmsGQQSAUb0we+yKAPCsU2BnzBv/bBXL3HIGQJLTljtzv1qiEAHg1jgl7wJIy7lm9ppy/K8TYvsQ/m5H+K0JIbwJ7UVV+ho1aQDKUmMieoiI7iKi24noDiIqSUTl8Ty1QnV6GzVozB+N6eL55gRbJ00M8GwB206pPCIA3PoPYHhiEQCeFQDs6NWdvMsBQOL8Pd8GnmIuAsCtIWyNW6mNSuxrMwDshBNeJdi7Eq40o2A0ptUoT41AdBsR5ckCp/wgKoa6NDCxKR242ILionoTEgf8VwiIAMgCXQ8mEQHgv87HU05O8km9D4kAcGswk9cBp3RXndEwdr78CWxPOFqX4lCJXgfRk241SQqJUYGqoj5NP9GAEN5D20vA+XI5RQCkAMyLglIUAPpZ8am99tedaWrXtWx37GRHWuejcvyeerWOrh+Hy4/tpbJbXt29Jzs1T19jN9wRcpmcJwEakZeqWyr1NiK/NG1y3+OyJGOdVhqPtUMm+p4IgCwPdrmIaFWWUxuZ0NtnAJTzHUCwdiYE1aPzKEHtjeThahsv0KhLTSgkoudNIRDSjYCK1MY1nvz2DgL/EQBOp+g4cUw9pqYOjeFBWBcD/Ft/dpzjFnY6JQ7THWgRQuDtLml4wCyuTX0Hf/0V4tatTNqpzifeKRuuAz3nxZ87nJ9MDLhpOYhbrnFZixHs/XogqEkD2F/rg0A+S5/rkZcQ8vVXWhm5fC7lTzh1QuPiLC87ndDBH6td+8qBcly2zY6ay68z4XC2xek4nK9zGNeTGer5cBh/+DqH69yJEPz5Zwi6jxD8yYepChSVVs/fNb2zvknl0vPh7zu0tnGsXwlb945p22Y+rnZdy6q3Icfh8usf/luPx7+5/npc/tZ/c135d1GC5eG7EDyoPwJL5tHy4/Rch5T6SzGt/BEL5iFqyribfUvvP65twPnrzFNqA9e4nKebHxEAWR7nchPRyiynNjKhNwsA3snPm/p+a0TXUYs+JaLCRrJIyTaIyqEprbzQSlsWCOsuAiAlTt4QdosA4MGPB8VyD8LatO7NOzAedHWnxYM/r18Xda5lP3a/NjDrd6d87aGSCCz/qJaewzk9f5fMj+AvPkPc6mXaIM1hJfIgkG3o6XlwLuS0Xe5BBD7+gJZ38oHYOejrd336N9vRf+vfSYLF1QbncwchftVihHz9JeLXrdLKkI9gfaYMrl26qJXxsXs1B1QqPwKffATWRjVvvjyHncmDd8Py0vMIqvoc1EwCM+S6lLldceQyKKfGDPI7rz35MAIfLqWJpLtzIZD/fvDum46L07Cdp8oisGRe5bDYTvzZMwipSEg4dkSL61of/TenY/H14N1aerbFH70NOF9uHz0P/nbmHb86ALau7bVruj3Xb47LdXjqEa1cXH8O4zbnsvLvvM44XC/+m7nxN7+2OJcz/hMPaWEFneXisvGHy822biNYG9dBwrb1sFR/CYEP3nXT8Zctg0A9PcflNGyfCOGzZyJq0miNDYfdXwyBD5bQrjMXLi+Xg68x80dKa+lZdPDfZe64Gde13s7fen9y/WZ7rn/zb2XfmUYEQJZHOV6aXpHl1EYmZAFw4/WUN71ldHo+u+PpU+4XWxNQn/j5Sd68x/9eIiKeTvH4P+ShJtYGdO7SKwRUo3YeL4BkmC6BWwRAEUJQGULcyRPgfxanMw0bMhixC2eqR9RCx45G7Pat6nfE9MlIPPMb4jevReKRA7C8WB72Ws8hfut6xJ84hvgNPyGoRWM1IMZt3wLH8aNw7N6O2LWrVPrg13oj8cQRJJw8jpiFs5Vj5QE0etkSxB/Yow68if/lZ+2OmwdwfVAuRrDcnwsRC+cjcuMGRG5Yj8hNmxA69DsEfzkYkZs2amEbNiDyp1UIKu0ya6HbYAFQhBC3aBZCPvsIccsWqHJanykOxx/n8W9sDOLPnlXn9XOZ+GU6jj/+wLXAf7TyOJ1f5Pw5uGYNQszWLUmOIOyz99TLfxy/7gOf5a87CH7OP3bJPMQd2IeYgAUIKkKInjAc8UcOIeHgXoQN/UbFDfnkfTj2/oz440cRPU27o2Ub6tjgCrnh2LtLxUviodeJv/kI4Q7NEbdxjeIdt3E1gqo9B3vvrrj22zHELFuEhGOHEfLZh8pG2LDvkPjbMcRtWYfEY4dg69DyFgem58H527t3QOKhfXCcOIroKWNUPFubJkg8vB8Jv51A3JrlKixq504k7NmJhONHEL/+Jzh2accTJ/A7ELZuQNzB/YgN0M4riJw8FpETRqj+ELVxPSKmToStZX3EnzyBG8F2xJ8/n3S4UUjnFojfvQOOY0e0vB67T+WXcORXddZB4uEDiJqsvS8h/IevkHjyKBJOHkPkxJuiIP7gPvVeBdUGq7WZqNhZkxF/5Fd1tkLYFx+lyJbrHzZpws2+tXEj+ORF67N3I2rLFmd/W4/IdetgH9g/iaEIgHSHoNQi5Pv/5vPlqV3M0fDf61JsdB9tiju7HXlW7PFdP2/CO9OA/sX91MnF4d9NRJOIiGHm1L/CifVpOlpQrZwqgOSbOoFbBAA7EOd0cMLFC0kCIPSLjxEzZ5omAEYOR8ym9QjKT8r5s8OxdWyNa6dPwPL847AUIFgb1EBQwzqI3f0zwsePRsgn7yFuw2o1sEbMnYX4nVvV74Tfz8HWqJo2iJ84Bn5LHg+00QEL1SE3/FvdTfFb7FydXHGCpRQh9JP3Efb9EIR99xXCfvgGwX26qTvYsB++1sK+G4KwIZ/Dwmn1aWbdDguKOwnW+tVhqfAkrA1raXeZuUjVm8/gv+q6X8H5jH7ilcuaAGAB4dwrEfrZR4jZptWJy8yiKPidQbC+0gwJh/bD3rKeqhc7s4jhmpNX9SpGCHqxHKwtGsHepxsSL/2l4sVsWIvIubNU3S1cd5594ZMB27UC/21t3UybhdDr4vrN0+cP3g5rg+oIatpQvTAofN4c2Dq0QuKRg6oN7d3aIe7oEY37kV9hbdZA/b5+8Q/Y2jZXv5Pz5vwTzp2FvX0zdT3omQfVN4uSkHdf1+q3a7uaTWGHGPrZByoPe+tGcJw9rfLldyCEffy2FvfQAdh6dEHE2OGIGPODJgDW/ISISZrgsZQmxK9ZquKqfsD1ui8XrI1rw9q8ERznzsDeuS3Cx41A9GJNTMTs2omoWdNUmsQLf8JavqQ6RfHaXxeS7MTt24OIKRPU36oNchOs1Z9DUNP6CPngbSScOqldc2XKv3kJ5o0BSOpb33+NkI/ehfVhAoso1Qe5v337FazNGyAwj9ZnRQCkPvakcyU/ES1NJ06OXX4kuCYtvdru5ka3rDhud9Pod/1cjtCaFACix5MR4cf5xhJR3mTh8qcQUAT+IwDYMbITu/TXTQHw5SfqTXJ8kEzoiGGI2bgettaN4di0Rg3clopPwbFhFSzPPqYGRce2jYjZ9TMS/v4bEeNHI2LubEQ6B/ngb4YgbsMaZfva31dvDsy/HkTIW68pe9FLFyFs9mxtIE7uuHkwZmfwACFy9U+I3rsX0Xt+QfS+fQgbPxYhQ79HzL59WtiePYjevl2bAdDXe10Hdq4rTwnz9DOv//M1ngUpQkj843dVFldHqJz7VRcB4HykL/S7IUkCgNn9m5CAmD2/IObAAURt2wprM2KcfwYAACAASURBVE0AOP78E7bnS2nO4TaCpcJTajkkdsdWxOzdC11cWDu2QezGdYhfu1wJAeUAnU5ICZncyQSRS504buhXn6tZmOjdu5Dwx3lErFoFW6c2iF+5SNXJ2rYVHCeOI6hccTg2r0HgEw+qcG5DW5d2qv1d680ChGdReFlEHSbEsx/OjZOJ588hqEpF1VZRK5crBx61ZTNC3nsLsYcPwVq3GvjOn9Pd8g6E/fsR+v4bmgAY9Z26zu2pC4CgGi/CsXEVLLzcUFibZg8f8T3it29CzO5duBYWhuDOryBm2xaEDuim0vM7E6KmjldHKSdeuZLUt5hrkFPMxe/fA9u772h1ZBHHSys7tyJ26ybEHtiPa3abVkcXpsyCuYbPna36mepve/cictUK2CqUQMzBAzf72+7dsL/7VhJDEQBZHmgLEFFAllN7IGFuVKbXrjSlM2E9Mn4wjrtOn9Oz4+cT+Tjfv5vSGbxAr7nc9btWXQSAKw35/R8CGREAIYP6IW5VgLojjpw1HTEb1yHodkLi6ZNqoOM702unjqvfcSeOI6R7WxU3dvsWREyZqGYA+ChadgLhUyfdnAE4/zts9auodLwMYOveWQ20PAMQNscpAJINxMox8QxAaULwgN4Iee9NhLz7BkLefwu29i1gbdkIIe87w957Q4kKS8kUZgBSssthvLzAAujypSQHojsALn/i5b9UeXWnrByuiwDgvxNPnUh69a/lXi1vDlcCoEKZpHVoW/++cBw9pLhYyxISr15ReVse1taigx4gteTAzivFfQzJ6+CckYjbsRUh3wzR2mDNCkSuWa0JgFWLtbzav4L4E8dVXo59uxFU5XlV12vnTsHWPoUlABZhPAPw+1nYW2tLOkFP3qPCePki5J2BKn08zwB88xWitm5R7aEEQP2XkfCnUwCcO4vwbz5X6Xga39arG8IGv4/oeTO1su7cjvCJY5WtoBeegGPHJiU0mB1/eFbKeofznQmnTyG4T1dEjBuByOkTVb2it2y+OQNw8U9YnyyGoPsJ11zaLH7fL7C9964qAwsL28P8Aqa/VP72VvUVbyVykrNVSyAdXfrWmwju3xNBD+dFyIdva32Q++G7g5ToUXsZ5CTA/4w3mQjgR9SXZCJ+zkQF0cOoQmN+b6pNw/PeAP3OPDucvasNtsv2ebr/XFMCH8ozmOjBNGrOSwBjZAYgDUImv/QfAeAc7BMvXVIOggcySx5Sa9KxP+9A/I7NiNm6SQ24ETOmIPH0CcRvWI2EfbtgeawUQgZ/BMcvO9UyATtCFgw8eMdtXKuWBBzbNyF+y3qVnoWFvk4bs2Se2mDGcfk99+ELnC+1ST4Q6387y6k7B/5mJ8VTr/8JS2kWQbeT/Ns5AxKzeoVa145evVKVNXzMcLUJD9evI/7MabX8oOcT+u1XiNl+cwkg7OvBSDiwR63hxy2bj6B7nQ7syhXYKj2kCQDm+sLTiN+4BrG7diBmwSxcC7KoOkR8/j4cB/dB30Og6sXlSl7WFP7mMoUO+Rzxe3cjZt1Pao9F5Pr1sHfrAMe65aoutk5tkXD2jOIUNnIo4vftVnsSlADo1FrjmMw227X36KjtAeC9CZNGqXj29s3Ba++Ok8cRt17bSBm9e7fiw3tJbI3rqJkNfQaA77Z5D0Hs6mVqCSaoMCHx5DHEbNmoyuo6PR+zfDEcp35TewCUeBw7EvF7dyFm9Ur1amPuP8zGsf8XsNhUewBmTNL65rBvkvpW1FTnkwEc99BB2D9yPkXhbGveUxG7cztiVwXgRmioSp8ia6cQ0dtdtYtzM6wext+682cbMgOQ5QG2IBEtznLqHEj4CGrQgkst6Iq9GyFhAN3gE/JcHXhWf7Mdtsd22T7n4zyxL71qigBIj5DJrycXADyA8R3wtb8uao6AnSfvtua18eef0sKcU+eWMprTtb7SRG3usjh35vPOfcszj99Mz7u92W6FpzRb/CSBvoOcd6s/W06Ly1PxHM72+cNTtMkckUf+dk4NWyo+DUv5sprDLlsalkrPqZ3llhefReADdyomzCtizHBEbVivHKoqNzuBB+4Epw8sU1hbYuB1fN4Rz3XkunG9eNmBuTz3JAKZEYcz6xK5EfhMOe3DtrIgYALL3gPL04/dbAPOn+3qj+aVypu0t0Dt6uenLTgvnX9K3Pn63aTV674iN9uwZF5YKj6jpeed/pwP14OfBOA6lsqr2KglgGcLI7C8s1zcD/ipgjsJFr0PMHv+OPuHpUJ5WHiHvnMfhHq65HGXp0Z4CSc3M3xC2xeh9yEuKz9doj8xwAy57lw2tq0z5TBug+ef1J724KcKOK+U6p+FMBEAWR5g+STahVlOnVMJUZKexQv0ybG6FPpXG3I4+t98yY6auncezpOSGHC9rr+Yh9NfbE0OtocK9DFK0TOZqJsIgEzAMmNUVwGgnNnyZbh2+RJiVyzRHJo+6PGgqTtup6MP//JDNS3M08i8EU45EHZiPIDqcXUnzt88uLId/uh2OS6H6wMyh/N1PZ0ez9PfXB52Yroz4DKxs9E/RAhqUAeJgf8g4fAB2FzvnJkBOyJO71pXV+ev14ev66z0vDhvDkvORU+T3rfeBmyP7fOHw/Sy6OVjO3pc3XHy32nZZ4eZUr04TG8zzofrwHGd9rlv8X4EWyVt535SXM6L8+b6cnzdBofrbcDX9bJyPK4Xh/F1Duf8kqfnfDmMP6514jz0dJzWNT3b0dtAv+bmtwiALI+q/Pg63+j69L9aqEzTLr9MGy60JFtQJ4KtK13jQ3Li+KU6/bUjevmb/w7vSbB3o0RLJ8KfLch6uRqtR2WaSkQ1s0hBBEAWwZklmasA4MGQB2r9owbHNAZAPZ7+nV58v7ue14WV8+7Y7+qYRvtntq7cT5SAykabmS2Dp+OLAMjySFqEiOZnObWXJSyKO6gcHqWGqEhvOJrRzLDmtDmoGf0a2JSO8XdEC9rkaE4/ojwNwsPUkOP/fwd/UTfroQuArJz372bWktwXCCQXAJ4eICW/dO64TeQs/bEviADI8ijIvm9ullNLQkVABIB0hDQJiADwoAPmO2CeZtYfOTTIueszMuqO2zUP3mfAU+AyW5H2MocrMzd/iwBIc/hJ62IxIpqTVgS5lj4BEQDpMzJ1DBEAHhIAfJBPj66wPFIC1ka1DRMB7PTDp01GojUI0Zs23NzHUZDfC1IdlnJlYO3RTUSAm449o7MVIgCyPLzeSUSzs5xaEioCIgCkI6RJQASABwQAbzrj8wGuXoG9YyvErVioOeYCN/cQ6Hft7Fj03/o3b2LTf+vfvPM9xbjOly7Zu7RVRwdzfD199PyZCOvXCYn//K094pl8M5yHnGJGnac/xBMBkObwk9bF4kQ0K60Ici19AiWc5wDIHoD0WZkyhggAzwmAhD9+h61tU/X+AXbMQTVfUucrxG1ai4TjR9WBSRwe9sEgOI4cVMfSRjqPrQ0Z9gMSjv6KuP17EL/nZ1hrvqhEQfCbA9S7ARy/HUfE8G+V0GAbwQP7Ie7QQU1oOAVE1I+TEdqrLRL+/EMEgIfEjgiALA+rfPP6Y5ZTS0JFQASAdIQ0CYgA8IAA4MfQ2Cl//B4sTz8Ee5fWyjEHVXsB18+fSTqLn98/wGcwBFXUnpNnR85v/uPz5kOGDcW1P86pQ2pC3x+E2F92KZt8qJL1uftUePymNbB376gJg2QCgA9IsrVrgaAXHkfwx++rtLc8Huchh+gPd/WZqYMIgDSHn7Qusu+akVYEuZY+AREA6TMydQwRAB4QAOxcnSJAPb/O0/L5eU2+BhwbVsLylPMs/t3bYG1UHRFDh6hTAB0XL+J64D+w1a2IkJEjELtmhXLullrVkHDujHoxzg3L3+C3DDouXVInFNpe65eyAOAy8Atq+Ll457JAZhyZxM1aPxEBkOXhld9mOz3LqSWhIiACQDpCmgREAGRtYHfbIbIAqFFZvUY5qHpl5bQTfz+DoIdIvUrXWvkJdT59wqkTsDeqhpDhw5Bw4Bd1p2/v0BLxp35DUIXH4Ni5STl0PiqXZwyUc+djewf0RdzhQzfD5A7fYzv/XfuGCIA0h5+0LpYiomlpRZBr6RNgATCaiGQPQPqsTBlDBEAOCoBqFXHt3Gn1bvv4X3YiKkB7W1/sotmIXrMKUTMm4/qF87A3qY7g77/DDasFMUsXIeHIAQS/8apy7pFzZmpvyNu4HrEzJ8Jao4ISAZaqL8Dxyw7EbNkE+6u9NWEgIsDjIkAEQJaH1XuIaEqWU0tCRUBmAKQjpElABEAOCoB6NRC/Zhns/XrB/p7zFbUFCJanH4H97Tdg7dwe1paN1Rn3IaNGInb1ctgGDlBv0VN3+s6nC2x9esL+2Sewtmh0810DvJegYW3YP/sUQfVrau8aEAEgAiDN0cCrLpYhosleVSIfLAyvo/DbAGUGwAcbzxNFFgGQgwKgYR0kbF6jns1X0/f6Ofh8Hr3LdD5fCx0/FnEb1/x3Sl/fW8Dx8yY7957/5nA+AEicf44wkBmALI9i9xLRpCynloSKgAgA6QhpEhABkEPOkR136QKwvPSc5pj479ScNJ/eV74sLJWf014QlFo8CU+dYQ6xEQGQ5vCT1sX7iGhiWhHkWvoEdAGQO/2oEsOMBPbfRrCWIFj4Na/y8SyDuwiWwhnkXjQTcaUdPduOafDm/1u/5CeYcWxxs84PENEEN22YPjkLAN4EKALA9F0hZQA/5yOcK0o4Kx+fYPB7UWkvX+qr/H9rR14RACmPPmmGPkhE49KMIRfTJSACIF1E5o4AolYgaiIfn2DQ4HeicSD6CkQNpc18os2agqiZuUeZLNX+of+/DXdsllJKoiQCIgCSUMgPIeAXBHoRUSO/qIlUQgikTuBh5wb21GPIlXQJiABIF5FEEAI+RaAfyR2lTzWYFDZLBMo6l6+zlFgSaQT4NCXZAyC9QQj4DwERAP7TllKT1Ak8SkQjU78sVzJCQARARihJHCHgOwREAPhOW0lJs07gMSIakfXkkpIJiACQfiAE/IuACAD/ak+pTcoEHiei4SlfktCMEhABkFFSEk8I+AYBEQC+0U5SSvcIPEFEQ90zIalFAEgfEAL+RUAEgH+1p9QmZQJPEtEPKV+S0IwSEAGQUVISTwj4BgERAL7RTlJK9wg8RUTfu2dCUosAkD4gBPyLgAgA/2pPqU3KBMoT0XcpX5LQjBJgATCKiHJlNIHEEwJCwKsJiADw6uaRwmUTgWf+/xbbb7PJlmnNlHaeAyACwLRdQCruZwREAPhZg0p1UiTw7P9vXL9O8YoEZpiACIAMo5KIQsAnCIgA8IlmkkK6SeC5/6cf4qYN0ycXAWD6LiAA/IyACAA/a1CpTooEKhDRVylekcAME2ABIHsAMoxLIgoBrycgAsDrm0gKmA0EKhLRl9lgx9QmRACYuvml8n5IQASAHzaqVOk/BF4gos//EyoBmSIgAiBTuCSyEPB6AiIAvL6JpIDZQOBFIhqcDXZMbUIEgKmbXyrvhwREAPhho0qV/kOgMhF99p9QCcgUgXtkD0CmeElkIeDtBEQAeHsLSfmyg8BLRPRJdhgysw0RAGZufam7PxIQAeCPrSp1Sk6gChF9nDxQ/s4cAREAmeMlsYWAtxMQAeDtLSTlyw4CVYnoo+wwZGYbIgDM3PpSd38kIALAH1tV6pScwMtE9GHyQPk7cwREAGSOl8QWAt5OQASAt7eQlC87CFQnovezw5CZbegCwMwMpO5CwJ8IiADwp9aUuqRGoAYRvZfaRQnPGAERABnjJLGEgK8QEAHgKy0l5XSHQE0ietcdA5KWqIzzMUBhIQSEgH8QEAHgH+0otUibQG0ieiftKHI1PQIiANIjJNeFgG8REAHgW+0lpc0agTpE9FbWkkoqnYAIAJ2EfAsB/yAgAsA/2lFqkTaBukT0ZtpR5Gp6BEQApEdIrgsB3yIgAsC32ktKmzUC9YjojawllVQ6AREAOgn5FgL+QUAEgH+0o9QibQINiGhQ2lHkanoERACkR0iuCwHfIiACwLfaS0qbNQINiWhg1pJKKp2ACACdhHwLAf8gIALAP9pRapE2gUZE9FraUeRqegTulccA00Mk14WATxEQAeBTzSWFzSKBxkQ0IItpJZmTgAgA6QpCwL8IiADwr/aU2qRMoCkRvZryJQnNKAEWACMzGlniCQEh4PUERAB4fRNJAbOBQDMi4r4u/9wgIALADXiSVAh4IQERAF7YKFKkbCfQnIj6ZrtVkxkUAWCyBpfq+j0BEQB+38RSQSJqQUS9hYR7BEQAuMdPUgsBbyMgAsDbWkTKYwSBliIA3McqAsB9hmJBCHgTAREA3tQaUhajCLxCRD2NMm4Wu/fJJkCzNLXU0yQERACYpKFNXs3WRNTD5Azcrr4IALcRigEh4FUERAB4VXNIYQwi0JaIuhtk2zRmRQCYpqmloiYhIALAJA1t8mq2I6JuJmfgdvVFALiNUAwIAa8iIALAq5pDCmMQgfZE1MUg26YxKwLANE0tFTUJAREAJmlok1ezAxF1NjkDt6svAsBthGJACHgVAREAXtUcUhiDCHQkok4G2TaNWREApmlqqaifE3iWiB533hXVJaKniaicn9dZqmdeAnz3z7MA8s8NAvfLY4Bu0JOkQsB7CLxORGFEtJuIthNRHBHxo1LyTwj4IwFe/xcB4GbLsgAY4aYNSS4EhEDOEyhEREeICM4Pi4A8OV8sKYEQMIRAVyLiJwHknxsERAC4AU+SCgEvI8CPRekCgI9KlX9CwF8JcF/nswDknxsEZAnADXiSVAh4IYHQ/w+Mp7ywXFIkIZCdBPgUQFnicpOoCAA3AUpycxJAUyqNh+gJ3EuPe83nIXoorji9h+LUFw/Sw15TLmbErNpTCXP2Fqm1AQT4PQD8PgD55wYBWQJwA54kNS8BNKYdgR0I/7T3ro+lA8HiZWViRswKdWiheXuM1DybCfQiolbZbNN05kQAmK7JpcLZQQD1aeeNQYRrA+WTEQbMClVoSXawFxtCwPkqYNnn4mZXEAHgJkBJbk4CLACuv05IfE0+GWFwfSABVWmxOXuL1NoAAn2JqIUBdk1l8gF5DNBU7S2VzSYCIgAyJ3xEAGRTxxMzOgE58VIn4ca3CAA34ElS8xIQASACwLy93ytq3p+ImnlFSXy4ECIAfLjxpOg5R0AEgAiAnOt9kjMRvUpETYWEewREALjHT1KblIAIABEAJu363lLtAUTUxFsK46vlEAHgqy0n5c5RAmhMq2UTYMZFgOwByNHu6o+Zv0ZEjfyxYp6skwgAT9KWvPyGABrSNhEAIgD8pkP7XkUGElFD3yu2d5X4QXkKwLsaRErjGwRkCSDjzp8fE5QZAN/o1z5USn77pQgANxtMBICbACW5OQmIABABYM6e7zW1HkRE9b2mND5aEBEAPtpwUuycJSACQARAzvZA0+f+BhHVMz0FNwGIAHAToCQ3JwERACIAzNnzvabWbxJRXa8pjY8WRASAjzacFDtnCfiqAFDn9ufA8cWyByBn+6sf5v6WCAD3W1UEgPsMxYIJCXhKALDj1D+8mY4dOP99zenE9Wv8ra47N9yl9DeHBfUixL6qpdfT6rYycqZ/VuNwXvIuABP+RzGuym8TUW3jzJvDsggAc7Sz1DKbCXhKAPzdg/BPT4K1l+bgbb0JV7oTIvoRHAO0cL5u6an9HT+AcLUHgdOxs455VYvPYXxtVFXC4XbaNU7DtnRBkFXnnpF0IgCyuQOKuXeIqJZgcI/AQ/IYoHsAJbU5CRgtAG4MJOxtTfjmRcK8OgS6jXC5O6HnE4QVDQlfv6iJgLplCOuaEl4vT/irG2FhfcLcOoSRVbT0qxoTNjYljK1G2NaS8P4zhE3NCMc6EIa8SPipMWFcdW1WISOOPKtxRACY8/+JgbV+l4hqGmjfFKZZAAw3RU2lkkIgGwkYLQDwOuHrSoTTnQhhfQkv3kOIe5Xwe2ct7J3yhMh+hC8rEvAmYXVjwtF2hNC+WhwWCWNeJuxqRRhZTUtz43XCuGoESy/CyKqE5Q0Jv3UgPFqckDBAmxXIqoNPL50IgGzsfGKKCbxHRDUEhXsERAC4x09Sm5SAJwTAVy8QznYmhPclNHhAm7qf8DLhRAfCu+UJ0f2dAuANwpomhFMdCZ9UJGxrQVjagDC6GgGDCH92JYyuqoVPqq4JgBFVtDhnOhFOdzTW+bM4EAFg0v8oxlX7fSKqbpx5c1gWAWCOdpZaZjMBowXAv68TtrQgsKMOaECoeg9hR0tten9jM0LlEoSj7QmfPE/AG9rdPAuDfk8R+Dqv9fcqR/jiRS3dj7U1AfBjLS0u7wMY+hJhewttpsDojYAiALK5A4q5D4joZcHgHgERAO7xk9QmJWC0AGCHzHf4f3bR7uzbPaZt4rvQlfCPc2Mg7+jnDzvXkD6EqP6E4D5aGg7neLxpkGcAOB1vGgzto+0V4A2BvAGQ7fMSgwgAk3Zk3632h0RUzXeL7x0lFwHgHe0gpfAxAkYLAN4EeKQ94b1nCbNqa5v7OIydvf5Rz/S7PP7HTlx/TNA1TtJvvu6cjte/+ZrRzl+WAHysc/tGcT8ioqq+UVTvLaUIAO9tGymZFxMwWgCw02THbO+tPerHd+yecNTpbebL6nUWGnIOgBd3aN8r2sdEVMX3iu1dJRYB4F3tIaXxEQKeEABKBPAduvMuP6vO1xvSiQDwkY7tO8X8hIhe8p3iemdJH5bHAL2zYaRU3k3AUwLAG5x3dpRBBIB392cfLN2nRFTZB8vtVUUWAeBVzSGF8RUCIgAy9+igCABf6dk+U87PiKiSz5TWSwsqAsBLG0aK5d0ERACIAPDuHur3pRtMRC/6fS0NrqAIAIMBi3n/JCACQASAf/Zsn6nV50T0gs+U1ksLKgLASxtGiuXdBEQAiADw7h7q96X7gogq+n0tDa6gCACDAYt5/yQgAkAEgH/2bJ+p1ZdEVMFnSuulBRUB4KUNI8XybgIiAEQAeHcP9fvSfUVEz/t9LQ2u4CPyGKDBhMW8XxIQASACwC87tu9UaggRPec7xfXOkooA8M52kVJ5OQERACIAvLyL+nvxviaiZ/29kkbXTwSA0YTFvl8SEAEgAsAvO7bvVOobInrGd4rrnSUVAeCd7SKl8nICIgBEAHh5F/X34n1LRE/7eyWNrh8LgGFGZyL2hYC/EfBHAaC/XZBP7bv+erKP8y2EWX0vgZwE6G//A3K8Pt8RUfkcL4WPF0AEgI83oBQ/Zwj4gwDQHX7CAEJcP0J4D8I/7QmBrckR2Ipi/mlB0f+0oKh/WlJMYGuK+7sd/RvclRDbl+B4VXs7obLxWvqzASIAcqaf+nGu3xPRU35cP49UrazMAHiEs2TiZwR8VQCww+a7+4RXCfYuhD9bEv5oRFdQg6agBn2GStTRubu6NBEVJaI7iKgkEZXFo9QStekdVKNRwU3o0JmmBEsHTRCwzbRmB0QA+Nl/gJyvzg9E9GTOF8O3SyACwLfbT0qfQwR8TQAo5zyAEN2HcKklOaKb0QnUo/dAVMbp5DNL8jYQFcdL1O7fZrT9cnOKDO2uCYuUhIAIgMzilfjpEBhKRE+kE0cup0NABEA6gOSyEEiJgK8IAHXHP5AQ0YPwW0MC6tNsVKJaKdXJnTDcTs+jMn10rD45gjpqswGuQkAEgDt0JW0KBIYTUbkUwiUoEwREAGQClkQVAjoBXxAA7ICjehEuN6Uw1KTJ/1/uu00vv4HfufEC9QusT5d5v0Dia5oYEAFgIHFzmmYB8Lg5q559tRYBkH0sxZKJCHizAFB33gMIl1oTEhrRJuTMbum7UZeG/daIEN+P8O8gAqrSYhN1EamqsQRGENFjxmbh/9ZFAPh/G0sNDSCABvTzjdfT3/3Od8Ce/LDz57X4q3XpAoiaGVD1zJq811GXdv3dgYCatCyziSW+EEiFwCgiejSVaxKcQQIiADIISqIJAVcCqEebw3s617o97ORTEhTs+PnzV0u1zj/fuYPftcg5+TsvqtNbaEG8cUv+CYHsIDCan0zJDkNmtiECwMytL3V3h0DBG5Vo3B8t6EZcfwKvcafkmI0Ou/YagWcibF0JfzSkC7iHuhJRfncqJmmFgA8QGENEfI6N/HODAE+hyEmAbgCUpOYmgHLU+FJ92m/tQuADddT6u4dmBFh0xPQlXG5NUahLU0BUiog6EFEjc7eK1N4EBFgA8Ovs5Z8bBEQAuAFPkgoBJ4HbUJk+Pt1Qexb+hnM6nu/Os3sGgAWGOshnAOFKa0JwfdqGh6mBS0v0J6LmLn/LTyHgjwTGEtFD/lgxT9ZJBIAnaUte/k7gDtSi8Vcb0il7N0Jcf7rO0/PZMSugLzFE9aEbV9pQTGR9Oog81ISIciWD2o+8Y/NfsmLJn0IgWwmMJ6IHs9WiCY2JADBho0uVDSdQBhXpjeN16NTZFoTo3oR/X9fW6lkM6J+UZgf0a/zNTp8FBH9bOtON443o+h8v0zKUozpElDeVWogASAWMBPsVgQlE9IBf1SgHKsMCQHbm5gB4ydI0BJ5CFRodVo3W/9mMLlg6Euzd6UZoT0I8v1Snv3Z8Lp/N7+inHdUb1oOuWbsS/mpD187Wot2oTstRjl4jonwZoCYCIAOQJIrPE5hIRPf5fC1yuAIyA5DDDSDZm4bAbchPT+IpqocK9FZsQ5pib0E7rzalExeb0Pm/GtHZf5rSoagWtDKmBv2Ax6kTHqUqWRjkRACYpkuZuqKTsvB/w9TAUqq8CICUqEiYEPBdAiIAfLftpOQZJ8BHW9+b8egSMyUCfJSiLAGkREbChIBvEhAB4JvtJqXOHIEpRHRP5pJI7OQERAAkJyJ/CwHfJiACwLfbT0qfMQJTiah0xqJKrNQIiABIjYyECwHfJCACwDfbTUqdOQIsAPjgK/nnBgERAG7Ak6RCwAsJiADwwkaRImU7gekimNXyfgAAEYNJREFUANxnKgLAfYZiQQh4EwERAN7UGlIWowjMIKISRhk3i10RAGZpaamnWQiIADBLS5u7nj8S0d3mRuB+7UUAuM9QLAgBbyIgAsCbWkPKYhSBmUR0l1HGzWL3cXkM0CxNLfU0CQERACZpaJNXcxYRFTc5A7erLwLAbYRiQAh4FQERAF7VHFIYgwjMJqI7DbJtGrMiAEzT1FJRkxAQAWCShjZ5NecQUTGTM3C7+iIA3EYoBoSAVxEQAeBVzSGFMYjAXCIqapBt05gVAWCappaKmoSACACTNLTJqzmPiIqYnIHb1RcB4DZCMSAEvIqACACvag4pjEEE5hPRHQbZNo3ZcvIUgGnaWipqDgIiAMzRzmav5QIiKmx2CO7WXwSAuwQlvRDwLgIiALyrPaQ0xhBYSES3G2PaPFZFAJinraWm5iAgAsAc7Wz2Wi4iokJmh+Bu/UUAuEtQ0gsB7yIgAsC72kNKYwyBxURU0BjT5rHKAuAH81RXaioE/J6ACAC/b2KpIBEtIaLbhIR7BEQAuMdPUgsBbyMgAsDbWkTKYwSBgP9vYC9ghGEz2RQBYKbWlrqagYAIADO0stRx6f9nr/MLBvcIiABwj5+kFgLeRkAEgLe1iJTHCALLiCifEYbNZPMJ2QNgpuaWupqAgAgAEzSyVJGWE1Fe4eAeAREA7vGT1ELA2wiIAPC2FpHyGEFgBRHlMcKwmWyKADBTa0tdzUBABIAZWlnquJKIcgsG9wiIAHCPn6QWAt5GQASAt7WIlMcIAquIKJcRhs1kUwSAmVpb6moGAiIAzNDKUsefBIH7BEQAuM9QLAgBbyIgAsCbWkPKYhSB1UYZNpNdEQBmam2pqxkIiAAwQytLHdcIAvcJPCmPAboPUSwIAS8iIALAixpDimIYgbWGWTaRYREAJmpsqaopCIgAMEUzm76S60xPIBsA8EmAQ7LBjpgQAkLAOwiIAPCOdpBSGEtgg7HmzWH9fiLqaY6qSi2FgCkIiAAwRTObvpI7TE8gGwA8+v93Kg/PBjtiQggIAe8gIALAO9pBSmEsAXkMMBv4liCiiXKiUjaQFBNCwDsIiADwjnaQUhhHoBoRfWaceXNZnkJED5urylJbIeC3BEQA+G3TSsWcBOYQ0b1CI3sI8JMAvKNSzlXOHp5iRQjkJAERADlJX/I2mkBHIppldCZms9+UiNYTUSMiKm22ykt9hYAfEehORPX8qD5SFSFQgIieI6LPiWi+vAbYmA5Rhog+IKIZRLSJiD4mop+JaJt8hIH0AZ/oA1uJ6DQRHSMi/u2v/3e5brv9vI7+2naZqdd2ItpMRAFENJSImsgLgIxx/mJVCAgBIeBLBFgEyD8hIASEgBAQAkLAZAT4TlL+CQEhIASEgBAQAiYjIALAZA0u1RUCQkAICAEhwAREAEg/EAJCQAgIASFgQgIiAEzY6FJlISAEhIAQEAIiAKQPCAEhIASEgBAwIQERACZsdKmyEBACQkAICAERANIHhIAQEAJCQAiYkIAIABM2ulRZCAgBISAEhIAIAOkDQkAICAEhIARMSEAEgAkbXaosBISAEBACQkAEgPQBISAEhIAQEAImJCACwISNLlUWAkJACAgBISACQPqAEBACQkAICAETEhABYMJGlyoLASEgBISAEBABIH1ACAgBISAEhIAJCYgAMGGjS5WFgBAQAkJACIgAkD4gBISAEBACQsCEBEQAmLDRpcpCQAgIASEgBEQASB8QAkJACAgBIWBCAiIATNjoUmUhIASEgBAQAiIApA8IASEgBISAEDAhAREAJmx0qbIQEAJCQAgIAREA0geEgBAQAkJACJiQgAgAEza6VFkICAEhIASEgAgA6QNCQAgIASEgBExIQASACRtdqiwEhIAQEAJCQASA9AEhIASEgBAQAiYkIALAhI0uVRYCQkAICAEhIAJA+oAQEAJCQAgIARMS2GjCOkuVhYAQEAJCQAj4LYFCBLqTQE/ev5xa1Vmc+6MGc/PMrD8r15q6P+bZXWdGnoP1Zuc59HiX3NH8XWd6noMcXn92rtX15uX5sU5A7g/LLKOWBHqCQMWIqJDfkpKKCQEhIASEgBDwYQKlnj5BbWqepK+qTaX5dYcX+LvBiNvRbPwdaDmpGNrNLI7O8+9G10Ul0COgJHotK4Xey0ujz8rS6pv/5nC+3mn+3Sp+y0lFVfoGIwqhzogCV6tOzz231m/05eNHqTURlfBhVlJ0ISAEhIAQEAI+S+A2Aj1VfwO9W2tC3pP1xxYIbDGpyLUu8+9G90Ul0dPFyfdmZ+/89FpaCul99Ljqe3lpJRbYHttl+5xP/XEF/qkzMe+JOpvorfygp4iogM+SlIILASEgBISAEPABAoVe3EBfVR2fa0vj0YXRdnpxdF9SEn2Wl86Uk09PBKR2XRcHnB/n23b6neByVBmba2OljfQFEd3mAwyliEJACAgBISAEfIPA46DKNSfkWl1n6G0x7WcXV3fxujNOzVl7Ity1DO1nFQeXr9bkXMsfAVXyDbJSSiEgBISAEBAC3kngmYqTaF3Dkbc7Os292yN3+VkVDroY6DTnbjQYeXv8C1NpNZFaHvBOslIqISAEhIAQEALeRiA/6MlqE/ME1B9RCN0X35ziz6pz9mQ6FgJqiWBxSXD5q0zOs0A9TeBtkKU8QkAICAEhIAS8iECuWrtoYJ2RBewd59yl7vg96byzOy8WAx1m34U6IwvYauyi/l7EWYoiBISAEBACQsBrCNxfdVSufc0nFEHfFdqmvux2yDlhj0VA35Wl0XRcEVQdk2sXEd3rNcSlIEJACAgBISAEcpJAB1DTGt/nv9BtUQmfv+tPTWSwEOi6sARq/JDvz/agBjnJW/IWAkJACAgBIZDjBO7ZTK/VHVbw3x6LS/qt89dFAYsA3tNQd+ht10ttpX45Dl8KIASEgBAQAkIgJwhUW02DG48tnPRYn+4o/fmbRQDXr9GY21F1HX2YE9wlTyEgBISAEBACOUagwHwa1Gj07eqkPX92+KnWbVkpNBhd6N98C2hAjjWCZCwEhIAQEAJCwJMEGl2ntg3N7Pz1I4mXlUL9UYVQB9TMk/wlLyEgBISAEBACHifwGOjJGsPyX+qpO0GTf/cMKIXqP+S7WAL0mMcbQzIUAkJACAgBIeApAi99k/t8t4X+u9s/1Sn/VISOejpgQQlU+SH3b55qA8lHCAgBISAEhIBHCZRfR4NaTi7m97v9syICWkwqime206sebRDJTAgIASEgBISA4QRAZWqMyHe5z4rS6b6SN7MO1B/i8/HBNUbkuUigkoa3hWQgBISAEBACQsBTBOpuos/bzrhT7v7TWApoM/1O1NtOH3mqTSQfISAEhIAQEAKGE6g1PJ9NNv5pZwCkNmPBfGqPzHfV8MaQDISAEBACQkAIeIJAuXXUrsWkIom9l8v0f2rOn8OZT7OJRRyPbqNWnmgXyUMICAEhIASEgKEEKm+g0bzzPy3nZ9S1nkvvQqfFhK5LCN0CKN0ycPwuS9KPZ0h5+X0BC+5G1R001NAGEeNCQAgIASEgBDxAoFDNsXl38PPuhjjNVNbUOS925v2XP4CAw5MwYdf7GLHtDSUEegQUQ4+Agui59G5Vph4BRdE9ID96BBRB/+XlMWPPtxkSC0bUp8eSkqg+Pu9WIirggbaRLISAEBACQkAIGEQAVLr+iIJhRjjL9GzynfyU3V/gtGU/vt/aE99u7om+yx7CoFWV8NHaluiz7B50C8iL11e+gM/WtUefZaXx5qpaOGs5jA6Lc2gWYGkp1B1RMJSI7jKoRcSsEBACQkAICAEPEAA91Hh04RzZ/d9+EWH7uWW4HHIWa07Owurjs7D57ALsvhCA3X+uxNpTU9FrOeFk4E7sPr8Wv1xYhrd+qoZT/xzIMQHABwM1GlUYBLrHA60jWQgBISAEhIAQMIgAqGzzCUXQe5nnNwDyuv/4HZ9iy5klmLtvDFYdm4Ft5wIw45fv0Wkp4bTlIF5ZSBi9YxA+WdsKh/5egyGbO+SwACiNpuPvYAFwr0EtImaFgBAQAkJACHiAAAuAiTknACb9/AW2n12GefvHYtWxH7Hh9BxM3vUFui8nnLH8iq82t8Lui0uw6NcxOGHZiq82tctxAdBsQhEWAPd5oHUkCyEgBISAEBACBhEAPdRkbM4sAfAMwJRdX+Hn31dh4YGJWHNiNracXYCpu79Gj+WEc0FHMHXv+9j6+zyM3NkXfwQfwrS9n+JM4KEcXQLgJRMClTGoRcSsEBACQkAICAEPEADd22BEIUevZZ5/CqBHwO34cE0LDNs6EIPXdcLXm3ri+y19VFjPpYTJuz5H5wDCwoNjMW3PYHVt5PaBmLDz0xx7CoA3NtYfXiieQCU80DqShRAQAkJACAgBwwjcUWNMvn058RggO1MWAfz8f/eAvOgekEv95rBeS0uqRwJ7Li2BzktIPfvfjc8KWKKdGZDeEwZGXefHAGuNy7eHiAoa1iJiWAgIASEgBISAJwhUWkIz2LEZ5TT9yW73xSVRaQVN8kS7SB5CQAgIASEgBAwlUHU/9W01pdi//IibPznr7K4L82k1pej16seoh6ENIsaFgBAQAkJACHiIQOG6IwpEiABIWwAxn7ojC9iJ6HYPtYtkIwSEgBAQAkLAWAJ15uSZ1XHOXTlyIFB236kbYY+df4fZd6HuojxTjG0JsS4EhIAQEAJCwIMEngY9WW9EgYg+Kzx/IJARDju7bfKbAOuMuC3sPtCjHmwWyUoICAEhIASEgPEEyo+nyXyXK0sBty4FqLv/WXeh/DQaa3wrSA5CQAgIASEgBHKAQNWv80b2WCxPBLjOIPDO/yrf5g3OgeaQLIWAEBACQkAIeIZA9d+pfcORhaL7LJelABYBzKH+iIJR9S9RK8+0gOQiBISAEBACQiCHCNQ5TB/yefdmXwrg+jcbXwS1TtJbOdQUkq0QEAJCQAgIAc8SqDaTlrSeXsy0IoCd/yvTiqHabFrgWfKSmxAQAkJACAiBnCWQt+pUWsxOkHfAu66J+/tvzfkXReUpNI+I8uRsM0juQkAICAEhIAQ8TyB/1fk0k18X7O9O37V+zSbcgWoLaDoR5fU8cslRCAgBISAEhICXEGi4g76r+0Oha7whzl/3BXC9ei8vhTrfF7rWaC996SXopRhCQAgIASEgBHKWQOGtVKvGiHyX288srnbGu94x+/pvFjbtZhZHjRF5LtLPVD1nSUvuQkAICAEhIAS8jQCobNVxuVbyzvieS0v5/GwA3/Xza5Cbjb8DVSbkWUqgh70NuZRHCAgBISAEhIDXECh1kFpVHZbnYKspxZQD9bVlAd3xt5pSFFVG5Nl7x35q7jVwpSBCQAgIASEgBLycwJ21f6Z3ag4vENx62p03hYCXvlJYrfE77/hbT70TNYfns9XZo57vL+rlnKV4QkAICAEhIAS8ksBtFY/SOzVH5D/ZbFwRdF1YQu0R8JZZAS4Hr/F3XXg3mo67AzVH5j36gnawTz6vpCmFEgJCQAgIASHgYwQK0yGqVnNinl31xxa80u7H4ui2sIR6fJDPEfCUIFB3+s5zCzj/tj8WR70xBS/XmZR3Bx2lKkR0u49xleIKASEgBISAEPAZAg/UsNBrNafmWVr7+4LgmYH2s4ujl/NuXBcEylnzkkFmlw34kT3Xz/LS2pMJy0qh/azi6k6/9ncFUWNa7sUvW2gAEd3nM+SkoEJACAgBISAE/IhAldqLcg+rMTPXz3Um5DvSdHzh2FemFgO/erjT3LvRZcHd4Dfu9QjQ3kLIzp2n7fUP/82PGvJ1jtdlQQmVjtOznSbjb4+pMzHf4eozc+2stTj3D0RUiYhy+RE/qYoQEAJCQAgIAZ8ncGch0It1QU2qh1Of2ivou/oz8y+rN7bAiXqjCvxTd+Rt0XWH35ZYd3jBf+sOLwjt+7YEFT6ywN/1xxU43mBm/mW1V9K31aOoD9vJl0gvElExnycjFfAZAv8DwWXXRl5Q8XgAAAAASUVORK5CYII=;" vertex="1" parent="1">
                    <mxGeometry width="512" height="595" as="geometry"/>
                </mxCell>
            </root>
        </mxGraphModel>
    </diagram>
</mxfile>